<svg width="860" height="1864" viewBox="0 0 860 1864" fill="none" xmlns="http://www.w3.org/2000/svg">
<g clip-path="url(#clip0_651_6238)">
<rect width="860" height="1864" fill="url(#paint0_linear_651_6238)"/>
<g opacity="0.6">
<path d="M810.476 106.436L863.201 128.395C865.445 129.33 867.852 129.811 870.283 129.811C877.901 129.811 884.734 134.501 887.472 141.611L901.029 176.812C906.075 189.913 896.405 204 882.365 204H481.223C463.013 204 458.619 178.616 475.769 172.495L556.384 144.717L605.876 126.085L643.464 115.686C646.914 114.732 650.558 114.721 654.014 115.655L689.138 125.145C691.437 125.767 693.828 125.972 696.2 125.752L733.216 122.323C735.386 122.122 737.509 121.568 739.501 120.682L779.566 102.856C783.721 101.007 788.382 100.63 792.78 101.786L810.476 106.436Z" fill="#DF9689"/>
<mask id="mask0_651_6238" style="mask-type:alpha" maskUnits="userSpaceOnUse" x="285" y="101" width="618" height="114">
<path d="M810.476 106.436L863.201 128.395C865.445 129.33 867.852 129.811 870.283 129.811C877.901 129.811 884.734 134.501 887.472 141.611L901.222 177.313C906.215 190.276 896.796 204.256 882.906 204.498L297.457 214.693C283.169 214.942 280.976 194.251 295 191.5L554.578 145.04C555.78 144.825 556.959 144.5 558.101 144.07L605.876 126.085L643.464 115.686C646.914 114.732 650.558 114.721 654.014 115.655L689.138 125.145C691.437 125.767 693.828 125.972 696.2 125.752L733.216 122.323C735.386 122.122 737.509 121.568 739.501 120.682L779.566 102.856C783.721 101.007 788.382 100.63 792.78 101.786L810.476 106.436Z" fill="#7584E1"/>
</mask>
<g mask="url(#mask0_651_6238)">
<path d="M776.971 121.948L786.675 101.688L793.732 99.3246H814.463L851.072 114.182L872.685 131.74L894.739 158.416L908.854 212.104L696.254 209.065L712.133 187.117L731.981 161.792L756.682 148.961L784.029 135.455L776.971 121.948Z" fill="#FFD891"/>
<path d="M631.857 126.675L646.854 114.182L648.177 113.169L652.588 114.182L675.524 115.87L692.726 126.675L702.429 138.156V165.844L669.348 187.792L586.426 214.13V196.571L601.864 171.584L621.271 150.312L641.561 136.805L631.857 126.675Z" fill="#FFD891"/>
</g>
</g>
<rect y="203" width="863" height="1661" fill="url(#paint1_linear_651_6238)"/>
<path d="M352.01 600.145V585.025L451.627 643.727V657.958L352.01 600.145Z" fill="#6E422C"/>
<path d="M451.627 643.727L352.01 585.025L364.462 579.688L465.858 638.391L451.627 643.727Z" fill="#B77F60"/>
<path d="M451.627 657.958V643.727L465.858 638.391V652.622L451.627 657.958Z" fill="#9C6549"/>
<path d="M352.01 642.838V627.718L451.627 686.42V700.651L352.01 642.838Z" fill="#6E422C"/>
<path d="M451.627 686.42L352.01 627.718L364.462 622.381L465.858 681.084L451.627 686.42Z" fill="#B77F60"/>
<path d="M451.627 700.651V686.42L465.858 681.084V695.315L451.627 700.651Z" fill="#9C6549"/>
<path d="M452.188 727.671V620.939L467.309 628.944V735.676L452.188 727.671Z" fill="#6E422C"/>
<path d="M482.429 623.607L467.309 628.944V735.676L482.429 729.45V623.607Z" fill="#9C6549"/>
<path d="M467.309 628.944L452.188 620.939L466.419 614.713L482.429 623.607L467.309 628.944Z" fill="#B77F60"/>
<path d="M366.429 657.958V551.226L351.309 559.231V665.963L366.429 657.958Z" fill="#6E422C"/>
<path d="M336.188 553.894L351.309 559.231V665.963L336.188 659.737V553.894Z" fill="#9C6549"/>
<path d="M351.309 559.231L366.429 551.226L352.198 545L336.188 553.894L351.309 559.231Z" fill="#B77F60"/>
<path d="M350.419 600.145V585.025L250.802 643.727V657.958L350.419 600.145Z" fill="#6E422C"/>
<path d="M250.802 643.727L350.419 585.025L337.967 579.688L236.571 638.391L250.802 643.727Z" fill="#B77F60"/>
<path d="M250.803 657.958V643.727L236.572 638.391V652.622L250.803 657.958Z" fill="#9C6549"/>
<path d="M350.419 642.838V627.718L250.802 686.42V700.651L350.419 642.838Z" fill="#6E422C"/>
<path d="M250.802 686.42L350.419 627.718L337.967 622.381L236.571 681.084L250.802 686.42Z" fill="#B77F60"/>
<path d="M250.803 700.651V686.42L236.572 681.084V695.315L250.803 700.651Z" fill="#9C6549"/>
<path d="M250.241 727.671V620.939L235.12 628.944V735.676L250.241 727.671Z" fill="#6E422C"/>
<path d="M220 623.607L235.12 628.944V735.676L220 729.45V623.607Z" fill="#9C6549"/>
<path d="M235.12 628.944L250.241 620.939L236.01 614.713L220 623.607L235.12 628.944Z" fill="#B77F60"/>
<path d="M250.429 727.958V621.226L235.309 629.231V735.963L250.429 727.958Z" fill="#6E422C"/>
<path d="M220.189 623.894L235.309 629.231V735.963L220.189 729.737V623.894Z" fill="#9C6549"/>
<path d="M235.309 629.231L250.429 621.226L236.198 615L220.188 623.894L235.309 629.231Z" fill="#B77F60"/>
<path d="M234.419 670.145V655.025L134.803 713.727V727.958L234.419 670.145Z" fill="#6E422C"/>
<path d="M134.803 713.727L234.419 655.025L221.967 649.688L120.572 708.391L134.803 713.727Z" fill="#B77F60"/>
<path d="M134.803 727.958V713.727L120.572 708.391V722.622L134.803 727.958Z" fill="#9C6549"/>
<path d="M234.419 712.838V697.718L134.803 756.42V770.651L234.419 712.838Z" fill="#6E422C"/>
<path d="M134.803 756.42L234.419 697.718L221.967 692.381L120.572 751.084L134.803 756.42Z" fill="#B77F60"/>
<path d="M134.803 770.651V756.42L120.572 751.084V765.315L134.803 770.651Z" fill="#9C6549"/>
<path d="M134.241 797.671V690.939L119.12 698.944V805.676L134.241 797.671Z" fill="#6E422C"/>
<path d="M104 693.607L119.121 698.944V805.676L104 799.45V693.607Z" fill="#9C6549"/>
<path d="M119.12 698.944L134.241 690.939L120.01 684.713L104 693.607L119.12 698.944Z" fill="#B77F60"/>
<path d="M134.429 797.958V691.226L119.309 699.231V805.963L134.429 797.958Z" fill="#6E422C"/>
<path d="M104.188 693.894L119.309 699.231V805.963L104.188 799.737V693.894Z" fill="#9C6549"/>
<path d="M119.309 699.231L134.429 691.226L120.198 685L104.188 693.894L119.309 699.231Z" fill="#B77F60"/>
<path d="M118.419 740.145V725.025L18.8026 783.727V797.958L118.419 740.145Z" fill="#6E422C"/>
<path d="M18.8026 783.727L118.419 725.025L105.967 719.688L4.57161 778.391L18.8026 783.727Z" fill="#B77F60"/>
<path d="M18.8026 797.958V783.727L4.57163 778.391V792.622L18.8026 797.958Z" fill="#9C6549"/>
<path d="M118.419 782.838V767.718L18.8026 826.42V840.651L118.419 782.838Z" fill="#6E422C"/>
<path d="M18.8026 826.42L118.419 767.718L105.967 762.381L4.57161 821.084L18.8026 826.42Z" fill="#B77F60"/>
<path d="M18.8026 840.651V826.42L4.57163 821.084V835.315L18.8026 840.651Z" fill="#9C6549"/>
<path d="M18.2409 867.671V760.939L3.12049 768.944V875.676L18.2409 867.671Z" fill="#6E422C"/>
<path d="M-11.9999 763.607L3.12051 768.944V875.676L-11.9999 869.45V763.607Z" fill="#9C6549"/>
<path d="M3.12046 768.944L18.2409 760.939L4.0099 754.713L-12 763.607L3.12046 768.944Z" fill="#B77F60"/>
<path d="M542.536 769.317L547.083 767.049L547.471 649.43L542.924 651.698L542.536 769.317Z" fill="#A2694A"/>
<path d="M507.773 599.421L512.32 597.153C510.643 596.322 508.994 595.62 507.379 595.044L502.832 597.312C504.447 597.889 506.097 598.59 507.773 599.421Z" fill="#A2694A"/>
<path d="M502.832 597.312L507.379 595.044C505.967 594.539 504.581 594.13 503.226 593.814L498.679 596.083C500.034 596.398 501.42 596.807 502.832 597.312Z" fill="#A2694A"/>
<path d="M498.679 596.083L503.226 593.814C502.172 593.569 501.137 593.379 500.124 593.246L495.577 595.514C496.59 595.647 497.625 595.837 498.679 596.083Z" fill="#A2694A"/>
<path d="M495.577 595.514L500.124 593.246C499.23 593.128 498.353 593.052 497.495 593.019L492.948 595.288C493.807 595.32 494.683 595.396 495.577 595.514Z" fill="#A2694A"/>
<path d="M492.948 595.287L497.495 593.019C496.701 592.989 495.923 592.994 495.162 593.036L490.615 595.304C491.376 595.263 492.154 595.257 492.948 595.287Z" fill="#A2694A"/>
<path d="M490.615 595.304L495.162 593.036C494.436 593.075 493.726 593.146 493.032 593.25L488.485 595.518C489.179 595.414 489.889 595.343 490.615 595.304Z" fill="#A2694A"/>
<path d="M488.485 595.517L493.032 593.249C492.356 593.35 491.696 593.481 491.053 593.641L486.506 595.909C487.149 595.749 487.809 595.618 488.485 595.517Z" fill="#A2694A"/>
<path d="M486.506 595.909L491.053 593.641C490.415 593.8 489.794 593.988 489.191 594.205L484.644 596.473C485.247 596.256 485.868 596.068 486.506 595.909Z" fill="#A2694A"/>
<path d="M484.644 596.473L489.191 594.205C488.582 594.423 487.992 594.671 487.42 594.947L482.873 597.215C483.445 596.939 484.035 596.691 484.644 596.473Z" fill="#A2694A"/>
<path d="M482.873 597.215L487.42 594.947C487.356 594.979 487.291 595.01 487.227 595.042L482.68 597.31C482.744 597.278 482.809 597.247 482.873 597.215Z" fill="#A2694A"/>
<path d="M542.924 651.698L547.471 649.43C547.477 647.489 547.323 645.506 547.02 643.499L542.473 645.767C542.776 647.774 542.931 649.757 542.924 651.698Z" fill="#A2694A"/>
<path d="M542.473 645.767L547.02 643.499C546.81 642.107 546.528 640.705 546.179 639.296L541.632 641.564C541.981 642.973 542.263 644.375 542.473 645.767Z" fill="#A2694A"/>
<path d="M541.632 641.564L546.179 639.296C545.893 638.14 545.561 636.98 545.186 635.82L540.639 638.088C541.014 639.248 541.346 640.408 541.632 641.564Z" fill="#A2694A"/>
<path d="M540.639 638.088L545.186 635.82C544.853 634.79 544.487 633.76 544.088 632.732L539.541 635.001C539.94 636.028 540.307 637.058 540.639 638.088Z" fill="#A2694A"/>
<path d="M539.541 635.001L544.088 632.732C543.717 631.777 543.319 630.823 542.893 629.874L538.346 632.142C538.772 633.092 539.171 634.045 539.541 635.001Z" fill="#A2694A"/>
<path d="M538.347 632.142L542.893 629.874C542.486 628.964 542.054 628.058 541.599 627.157L537.052 629.425C537.507 630.326 537.939 631.232 538.347 632.142Z" fill="#A2694A"/>
<path d="M537.052 629.425L541.599 627.157C541.154 626.275 540.686 625.399 540.197 624.529L535.651 626.797C536.139 627.667 536.607 628.543 537.052 629.425Z" fill="#A2694A"/>
<path d="M535.651 626.797L540.197 624.529C539.711 623.664 539.204 622.805 538.677 621.954L534.13 624.222C534.658 625.073 535.165 625.932 535.651 626.797Z" fill="#A2694A"/>
<path d="M534.131 624.222L538.678 621.954C538.146 621.095 537.593 620.245 537.022 619.404L532.475 621.672C533.047 622.513 533.599 623.364 534.131 624.222Z" fill="#A2694A"/>
<path d="M532.475 621.672L537.022 619.404C536.435 618.54 535.827 617.686 535.2 616.844L530.653 619.112C531.28 619.954 531.888 620.808 532.475 621.672Z" fill="#A2694A"/>
<path d="M530.653 619.112L535.2 616.844C534.54 615.958 533.86 615.086 533.159 614.229L528.612 616.497C529.313 617.354 529.994 618.226 530.653 619.112Z" fill="#A2694A"/>
<path d="M528.612 616.497L533.159 614.229C532.4 613.3 531.617 612.388 530.812 611.497L526.265 613.765C527.07 614.656 527.853 615.568 528.612 616.497Z" fill="#A2694A"/>
<path d="M526.265 613.765L530.812 611.497C529.886 610.472 528.932 609.474 527.951 608.507L523.405 610.775C524.385 611.742 525.34 612.74 526.265 613.765Z" fill="#A2694A"/>
<path d="M523.405 610.775L527.951 608.507C526.708 607.281 525.423 606.104 524.101 604.985L519.554 607.253C520.876 608.372 522.161 609.549 523.405 610.775Z" fill="#A2694A"/>
<path d="M519.554 607.253L524.1 604.985C520.419 601.87 516.454 599.202 512.32 597.153L507.773 599.421C511.907 601.47 515.872 604.138 519.554 607.253Z" fill="#A2694A"/>
<path d="M507.773 599.421C488.285 589.764 472.452 597.522 472.388 616.743L472 734.362L542.536 769.317L542.924 651.698C542.988 632.477 527.254 609.075 507.773 599.421Z" fill="#B77F60"/>
<mask id="mask1_651_6238" style="mask-type:alpha" maskUnits="userSpaceOnUse" x="472" y="595" width="71" height="175">
<path d="M507.773 599.421C488.285 589.764 472.452 597.522 472.388 616.743L472 734.362L542.536 769.317L542.924 651.698C542.988 632.477 527.254 609.075 507.773 599.421Z" fill="#B77F60"/>
</mask>
<g mask="url(#mask1_651_6238)">
<path d="M486 594L484.971 738" stroke="#B07554" stroke-width="5" stroke-linecap="round"/>
<path d="M500 595L500 754" stroke="#B07554" stroke-width="5" stroke-linecap="round"/>
<path d="M516 600L516 759" stroke="#B07554" stroke-width="5" stroke-linecap="round"/>
<path d="M530 611L530 770" stroke="#B07554" stroke-width="5" stroke-linecap="round"/>
</g>
<ellipse cx="526" cy="695.5" rx="6" ry="7.5" fill="#6C3920"/>
<circle cx="531.5" cy="57.5" r="31.5" fill="white"/>
<path d="M785 457C785.991 464.926 790.545 473.392 794.34 480.349M796.849 457.054C796.849 462.661 797.827 467.974 799.183 473.399M806.849 469.054V479.951M475.012 509C477.075 518.006 475.413 529.044 473.99 538.137M465.28 511.507C467.526 517.625 468.474 523.856 469.011 530.377M462 528.69L466.48 540.894M738.048 323.76C738.568 330.526 740.936 337.461 742.718 343.996M748.944 320.646V340.883M761.397 329.986C760.778 333.701 758.284 336.996 758.284 340.883M663 628.113C663.52 634.879 665.888 641.815 667.67 648.349M673.896 625V645.236M686.349 634.34C685.73 638.055 683.236 641.35 683.236 645.236M514 284.113C514.52 290.879 516.888 297.815 518.67 304.349M524.896 281V301.236M537.349 290.34C536.73 294.055 534.236 297.35 534.236 301.236M799 705.113C799.52 711.879 801.888 718.815 803.67 725.349M809.896 702V722.236M822.349 711.34C821.73 715.055 819.236 718.35 819.236 722.236" stroke="#94CDA0" stroke-opacity="0.3" stroke-width="7" stroke-linecap="round"/>
<path d="M536 974C536.991 981.926 541.545 990.392 545.34 997.349M547.849 974.054C547.849 979.661 548.827 984.974 550.183 990.399M557.849 986.054V996.951M226.012 1026C228.075 1035.01 226.413 1046.04 224.99 1055.14M216.28 1028.51C218.526 1034.62 219.474 1040.86 220.011 1047.38M213 1045.69L217.48 1057.89M489.048 840.76C489.568 847.526 491.936 854.461 493.718 860.996M499.944 837.646V857.883M512.397 846.986C511.778 850.701 509.284 853.996 509.284 857.883M414 1145.11C414.52 1151.88 416.888 1158.81 418.67 1165.35M424.896 1142V1162.24M437.349 1151.34C436.73 1155.05 434.236 1158.35 434.236 1162.24M265 801.113C265.52 807.879 267.888 814.815 269.67 821.349M275.896 798V818.236M288.349 807.34C287.73 811.055 285.236 814.35 285.236 818.236M550 1222.11C550.52 1228.88 552.888 1235.81 554.67 1242.35M560.896 1219V1239.24M573.349 1228.34C572.73 1232.05 570.236 1235.35 570.236 1239.24" stroke="#94CDA0" stroke-opacity="0.3" stroke-width="7" stroke-linecap="round"/>
<path d="M658 841.958V735.226L673.12 743.231V849.963L658 841.958Z" fill="#6E422C"/>
<path d="M688.241 737.894L673.12 743.231V849.963L688.241 843.737V737.894Z" fill="#9C6549"/>
<path d="M673.12 743.231L658 735.226L672.231 729L688.241 737.894L673.12 743.231Z" fill="#B77F60"/>
<path d="M674.01 784.145V769.025L773.627 827.727V841.958L674.01 784.145Z" fill="#6E422C"/>
<path d="M773.627 827.727L674.01 769.025L686.462 763.688L787.858 822.391L773.627 827.727Z" fill="#B77F60"/>
<path d="M773.627 841.958V827.727L787.858 822.391V836.622L773.627 841.958Z" fill="#9C6549"/>
<path d="M674.01 826.838V811.718L773.627 870.42V884.651L674.01 826.838Z" fill="#6E422C"/>
<path d="M773.627 870.42L674.01 811.718L686.462 806.381L787.858 865.084L773.627 870.42Z" fill="#B77F60"/>
<path d="M773.627 884.651V870.42L787.858 865.084V879.315L773.627 884.651Z" fill="#9C6549"/>
<path d="M774.188 911.671V804.939L789.309 812.944V919.676L774.188 911.671Z" fill="#6E422C"/>
<path d="M804.429 807.607L789.309 812.944V919.676L804.429 913.45V807.607Z" fill="#9C6549"/>
<path d="M789.309 812.944L774.188 804.939L788.419 798.713L804.429 807.607L789.309 812.944Z" fill="#B77F60"/>
<path d="M775 911.958V805.226L790.12 813.231V919.963L775 911.958Z" fill="#6E422C"/>
<path d="M805.241 807.894L790.12 813.231V919.963L805.241 913.737V807.894Z" fill="#9C6549"/>
<path d="M790.12 813.231L775 805.226L789.231 799L805.241 807.894L790.12 813.231Z" fill="#B77F60"/>
<path d="M791.01 854.145V839.025L890.627 897.727V911.958L791.01 854.145Z" fill="#6E422C"/>
<path d="M890.627 897.727L791.01 839.025L803.462 833.688L904.858 892.391L890.627 897.727Z" fill="#B77F60"/>
<path d="M791.01 896.838V881.718L890.627 940.42V954.651L791.01 896.838Z" fill="#6E422C"/>
<path d="M890.627 940.42L791.01 881.718L803.462 876.381L904.858 935.084L890.627 940.42Z" fill="#B77F60"/>
<path d="M542 771.958V665.226L557.12 673.231V779.963L542 771.958Z" fill="#6E422C"/>
<path d="M572.241 667.894L557.12 673.231V779.963L572.241 773.737V667.894Z" fill="#9C6549"/>
<path d="M557.12 673.231L542 665.226L556.231 659L572.241 667.894L557.12 673.231Z" fill="#B77F60"/>
<path d="M558.01 714.145V699.025L657.627 757.727V771.958L558.01 714.145Z" fill="#6E422C"/>
<path d="M657.627 757.727L558.01 699.025L570.462 693.688L671.858 752.391L657.627 757.727Z" fill="#B77F60"/>
<path d="M657.627 771.958V757.727L671.858 752.391V766.622L657.627 771.958Z" fill="#9C6549"/>
<path d="M558.01 756.838V741.718L657.627 800.42V814.651L558.01 756.838Z" fill="#6E422C"/>
<path d="M657.627 800.42L558.01 741.718L570.462 736.381L671.858 795.084L657.627 800.42Z" fill="#B77F60"/>
<path d="M657.627 814.651V800.42L671.858 795.084V809.315L657.627 814.651Z" fill="#9C6549"/>
<path d="M658.188 841.671V734.939L673.309 742.944V849.676L658.188 841.671Z" fill="#6E422C"/>
<path d="M688.429 737.607L673.309 742.944V849.676L688.429 843.45V737.607Z" fill="#9C6549"/>
<path d="M673.309 742.944L658.188 734.939L672.419 728.713L688.429 737.607L673.309 742.944Z" fill="#B77F60"/>
<ellipse cx="477" cy="214.5" rx="35" ry="8.5" fill="#CDE6A0"/>
<ellipse cx="549" cy="209.5" rx="27" ry="6.5" fill="#CDE6A0"/>
<ellipse cx="585" cy="213" rx="30" ry="7" fill="#CDE6A0"/>
<ellipse cx="520" cy="222" rx="30" ry="9" fill="#CDE6A0"/>
<ellipse cx="428.5" cy="221" rx="41.5" ry="10" fill="#CDE6A0"/>
<path d="M583.101 187.863C582.491 188.657 582.497 190.069 582.381 191.017C582.141 192.975 581.916 194.95 581.562 196.891C581.227 198.727 581.313 200.621 581.313 202.479C581.313 204.02 583.823 204.059 584.927 204.069C586.084 204.079 586.2 203.432 586.405 202.38C586.791 200.394 586.395 198.425 586.349 196.432C586.312 194.827 586.274 193.271 586.063 191.675C585.963 190.919 585.741 190.169 585.666 189.421C585.642 189.185 585.423 188.241 585.269 188.086C585.114 187.932 584.804 189.43 584.803 189.44C584.63 190.796 584.583 192.185 584.561 193.55C584.53 195.392 584.597 197.236 584.548 199.077C584.521 200.09 584.647 201.443 584.331 202.392" stroke="#3A3B4F" stroke-width="10" stroke-linecap="round"/>
<path d="M606.589 159.536C606.589 172.175 596.343 182.421 583.704 182.421C571.064 182.421 560.818 172.175 560.818 159.536C560.818 146.897 571.064 136.651 583.704 136.651C596.343 136.651 606.589 146.897 606.589 159.536Z" fill="#302860"/>
<path d="M614.591 173.619C614.591 183.254 606.781 191.064 597.147 191.064C587.513 191.064 579.703 183.254 579.703 173.619C579.703 163.985 587.513 156.175 597.147 156.175C606.781 156.175 614.591 163.985 614.591 173.619Z" fill="#302860"/>
<path d="M591.546 171.219C591.546 182.179 582.661 191.064 571.701 191.064C560.741 191.064 551.856 182.179 551.856 171.219C551.856 160.259 560.741 151.374 571.701 151.374C582.661 151.374 591.546 160.259 591.546 171.219Z" fill="#302860"/>
<path d="M551.402 183.901C550.707 184.803 550.715 186.408 550.583 187.485C550.31 189.71 550.054 191.955 549.652 194.16C549.271 196.247 549.369 198.399 549.369 200.51C549.369 202.262 552.221 202.306 553.476 202.317C554.791 202.328 554.923 201.593 555.155 200.397C555.594 198.141 555.144 195.904 555.092 193.638C555.05 191.814 555.007 190.046 554.767 188.233C554.653 187.374 554.401 186.521 554.316 185.672C554.289 185.404 554.039 184.33 553.864 184.155C553.689 183.98 553.336 185.682 553.335 185.693C553.139 187.234 553.085 188.812 553.06 190.364C553.025 192.456 553.101 194.552 553.046 196.644C553.015 197.795 553.158 199.333 552.799 200.412" stroke="#444556" stroke-opacity="0.8" stroke-width="10" stroke-linecap="round"/>
<path d="M578.092 151.712C578.092 166.075 566.448 177.718 552.086 177.718C537.723 177.718 526.08 166.075 526.08 151.712C526.08 137.349 537.723 125.706 552.086 125.706C566.448 125.706 578.092 137.349 578.092 151.712Z" fill="#353054"/>
<path d="M587.185 167.716C587.185 178.663 578.31 187.538 567.362 187.538C556.414 187.538 547.539 178.663 547.539 167.716C547.539 156.768 556.414 147.893 567.362 147.893C578.31 147.893 587.185 156.768 587.185 167.716Z" fill="#353054"/>
<path d="M560.997 164.988C560.997 177.442 550.901 187.538 538.446 187.538C525.992 187.538 515.896 177.442 515.896 164.988C515.896 152.533 525.992 142.437 538.446 142.437C550.901 142.437 560.997 152.533 560.997 164.988Z" fill="#353054"/>
<path d="M477.444 188.313C476.604 189.406 476.613 191.349 476.453 192.653C476.123 195.348 475.813 198.066 475.325 200.737C474.864 203.264 474.983 205.87 474.983 208.427C474.983 210.548 478.437 210.601 479.957 210.615C481.549 210.629 481.709 209.739 481.99 208.29C482.522 205.558 481.976 202.848 481.913 200.104C481.863 197.896 481.811 195.755 481.52 193.559C481.383 192.519 481.076 191.486 480.973 190.457C480.941 190.133 480.639 188.833 480.426 188.62C480.214 188.408 479.787 190.469 479.786 190.483C479.548 192.349 479.483 194.26 479.452 196.14C479.411 198.674 479.503 201.211 479.435 203.745C479.398 205.139 479.572 207.001 479.136 208.307" stroke="#3F3F47" stroke-width="10" stroke-linecap="round"/>
<path d="M508.098 129.035C508.098 147.281 493.308 162.071 475.063 162.071C456.818 162.071 442.027 147.281 442.027 129.035C442.027 110.79 456.818 96 475.063 96C493.308 96 508.098 110.79 508.098 129.035Z" fill="#3C3661"/>
<path d="M477.306 123.309H489.599L493.047 123.676C503.826 124.823 513.317 131.283 518.339 140.889C519.727 143.545 520.741 146.381 521.35 149.316L521.745 151.221C523.992 162.048 521.52 173.321 514.947 182.214C511.88 186.363 508.012 189.863 503.58 192.503C494.641 197.829 483.931 199.366 473.858 196.759L462.647 193.857C455.854 192.099 449.856 188.097 445.624 182.501C441.037 176.433 438.831 168.895 439.423 161.312L439.673 158.117C440.342 149.557 443.908 141.481 449.785 135.221C456.92 127.621 466.881 123.309 477.306 123.309Z" fill="#3C3661"/>
<path d="M442.462 195.791C441.534 196.997 441.544 199.142 441.367 200.582C441.003 203.557 440.66 206.557 440.122 209.505C439.613 212.294 439.745 215.171 439.745 217.993C439.745 220.334 443.557 220.393 445.234 220.408C446.992 220.423 447.168 219.441 447.479 217.842C448.066 214.826 447.464 211.836 447.394 208.807C447.338 206.369 447.281 204.005 446.96 201.582C446.809 200.434 446.47 199.294 446.357 198.158C446.321 197.8 445.988 196.365 445.753 196.131C445.519 195.896 445.048 198.171 445.046 198.187C444.784 200.246 444.712 202.356 444.678 204.43C444.632 207.227 444.734 210.028 444.659 212.825C444.618 214.363 444.81 216.42 444.329 217.861" stroke="#60617C" stroke-width="10" stroke-linecap="round"/>
<path d="M478.139 152.763C478.139 171.962 462.575 187.526 443.376 187.526C424.177 187.526 408.613 171.962 408.613 152.763C408.613 133.564 424.177 118 443.376 118C462.575 118 478.139 133.564 478.139 152.763Z" fill="#383458"/>
<path d="M490.294 174.155C490.294 188.79 478.431 200.653 463.796 200.653C449.162 200.653 437.299 188.79 437.299 174.155C437.299 159.521 449.162 147.658 463.796 147.658C478.431 147.658 490.294 159.521 490.294 174.155Z" fill="#383458"/>
<path d="M463.793 172.331C463.793 189.817 448.393 203.991 429.397 203.991C410.4 203.991 395 189.817 395 172.331C395 154.845 410.4 140.67 429.397 140.67C448.393 140.67 463.793 154.845 463.793 172.331Z" fill="#383458"/>
<path d="M520.492 202.337C521.045 203.055 521.038 204.333 521.143 205.191C521.361 206.962 521.565 208.75 521.885 210.505C522.188 212.167 522.11 213.881 522.11 215.562C522.11 216.956 519.839 216.991 518.84 217C517.793 217.009 517.688 216.424 517.503 215.472C517.154 213.675 517.512 211.894 517.554 210.09C517.587 208.638 517.621 207.23 517.812 205.786C517.902 205.102 518.104 204.423 518.172 203.747C518.193 203.533 518.391 202.679 518.531 202.539C518.671 202.399 518.951 203.754 518.952 203.764C519.109 204.99 519.151 206.247 519.172 207.483C519.199 209.149 519.138 210.817 519.183 212.483C519.207 213.399 519.093 214.624 519.379 215.483" stroke="#444556" stroke-opacity="0.8" stroke-width="10" stroke-linecap="round"/>
<path d="M499.24 176.707C499.24 188.143 508.511 197.413 519.947 197.413C531.383 197.413 540.654 188.143 540.654 176.707C540.654 165.271 531.383 156 519.947 156C508.511 156 499.24 165.271 499.24 176.707Z" fill="#353054"/>
<path d="M492 189.449C492 198.166 499.066 205.233 507.783 205.233C516.5 205.233 523.567 198.166 523.567 189.449C523.567 180.732 516.5 173.666 507.783 173.666C499.066 173.666 492 180.732 492 189.449Z" fill="#353054"/>
<path d="M512.852 187.277C512.852 197.194 520.891 205.233 530.807 205.233C540.724 205.233 548.763 197.194 548.763 187.277C548.763 177.361 540.724 169.322 530.807 169.322C520.891 169.322 512.852 177.361 512.852 187.277Z" fill="#353054"/>
</g>
<defs>
<linearGradient id="paint0_linear_651_6238" x1="430" y1="0" x2="430" y2="200" gradientUnits="userSpaceOnUse">
<stop stop-color="#D4F3FF"/>
<stop offset="1" stop-color="white"/>
</linearGradient>
<linearGradient id="paint1_linear_651_6238" x1="840.5" y1="405" x2="-1.68245e-05" y2="1628.5" gradientUnits="userSpaceOnUse">
<stop offset="0.005" stop-color="#F3FFCF"/>
<stop offset="0.16" stop-color="#DAF4B8"/>
<stop offset="1" stop-color="#BAF3A7"/>
</linearGradient>
<clipPath id="clip0_651_6238">
<rect width="860" height="1864" fill="white"/>
</clipPath>
</defs>
</svg>
