<svg width="430" height="932" viewBox="0 0 430 932" fill="none" xmlns="http://www.w3.org/2000/svg">
<g clip-path="url(#clip0_651_6455)">
<rect width="430" height="932" fill="url(#paint0_linear_651_6455)"/>
<rect x="-56" y="466" width="526" height="276" fill="#579B73"/>
<path d="M384.547 196.563L446.202 237.85C449.174 239.84 452.67 240.902 456.246 240.902C464.596 240.902 471.856 246.629 473.801 254.748L499.093 360.341C502.105 372.915 492.574 385 479.644 385H-52.9673C-73.457 385 -80.6933 357.852 -62.922 347.653L-21.37 323.808L76.0146 269.853L135.801 233.664L179.542 214.209C184.661 211.931 190.501 211.906 195.64 214.139L235.33 231.383C238.763 232.874 242.545 233.372 246.246 232.821L288.821 226.479C291.955 226.012 294.933 224.807 297.51 222.964L344.269 189.515C349.927 185.467 357.282 184.651 363.69 187.358L381.203 194.759C382.372 195.253 383.492 195.857 384.547 196.563Z" fill="url(#paint1_linear_651_6455)"/>
<mask id="mask0_651_6455" style="mask-type:alpha" maskUnits="userSpaceOnUse" x="-74" y="185" width="574" height="200">
<path d="M384.547 196.563L446.202 237.85C449.174 239.84 452.67 240.902 456.246 240.902C464.596 240.902 471.856 246.629 473.801 254.748L499.093 360.341C502.105 372.915 492.574 385 479.644 385H-52.9673C-73.457 385 -80.6933 357.852 -62.922 347.653L-21.37 323.808L76.0146 269.853L135.801 233.664L179.542 214.209C184.661 211.931 190.501 211.906 195.64 214.139L235.33 231.383C238.763 232.874 242.545 233.372 246.246 232.821L288.821 226.479C291.955 226.012 294.933 224.807 297.51 222.964L344.269 189.515C349.927 185.467 357.282 184.651 363.69 187.358L381.203 194.759C382.372 195.253 383.492 195.857 384.547 196.563Z" fill="#7584E1"/>
</mask>
<g mask="url(#mask0_651_6455)">
<path d="M342.487 225.63L354.21 186.279L362.735 181.688H387.778L432.003 210.545L458.111 244.649L484.753 296.461L501.803 400.74L244.98 394.838L264.162 352.208L288.139 303.02L317.977 278.097L351.013 251.864L342.487 225.63Z" fill="url(#paint2_linear_651_6455)"/>
<path d="M167.187 234.812L185.303 210.545L186.901 208.578L192.23 210.545L219.937 213.825L240.717 234.812L252.439 257.11V310.89L212.477 353.519L112.305 404.675V370.571L130.954 322.039L154.399 280.721L178.909 254.487L167.187 234.812Z" fill="url(#paint3_linear_651_6455)"/>
</g>
<path d="M430.611 267.355L487.688 247.422C522.013 235.435 559.903 239.465 590.939 258.403C618.649 275.312 638.432 302.616 645.868 334.214L654.469 370.76C657.032 381.648 658.213 392.816 657.986 404C656.44 480.049 591.663 539.382 515.771 534.264L57.5614 503.365C32.8724 501.7 25.1714 469.131 46.5001 456.585C48.241 455.561 50.0989 454.751 52.0336 454.171L69.4276 448.959C99.3367 439.997 126.311 423.213 147.564 400.34L163.011 383.716C179.348 366.133 199.009 351.963 220.855 342.024L223.44 340.848C245.215 330.942 268.851 325.787 292.773 325.727L311.511 325.68C340.608 325.607 368.493 314.016 389.068 293.44C400.777 281.731 414.977 272.814 430.611 267.355Z" fill="url(#paint4_linear_651_6455)"/>
<path d="M126.401 327.988L90.6422 299.651C77.0349 288.868 60.1826 283 42.8207 283C13.8327 283 -12.6988 299.281 -25.8275 325.125L-26.9462 327.328L-62.824 431.227C-78.5785 476.851 -44.6893 524.406 3.57799 524.406L146.191 528L212 524.406L304.816 524.406H492.201C454.168 524.406 417.944 508.169 392.636 479.779C367.328 451.388 331.103 435.152 293.07 435.152H289.396C248.918 435.152 210.377 417.827 183.508 387.554L152.785 352.94C144.735 343.869 135.907 335.52 126.401 327.988Z" fill="url(#paint5_linear_651_6455)"/>
<path d="M534.066 456.64L564.002 547.224L609.578 654.92C615.517 668.955 609.99 685.213 596.728 692.72L596.34 692.939C595.092 693.645 593.896 694.44 592.762 695.318L518.694 752.614C512.186 757.649 503.895 759.789 495.762 758.534L98.1368 697.163C67.5619 692.444 63.2744 650.145 92.2805 639.387L106.463 634.126C108.482 633.378 110.575 632.848 112.708 632.548L213.659 618.317C219.74 617.46 225.411 614.757 229.906 610.575L296.37 548.74C297.455 547.731 298.464 546.642 299.388 545.484L357.324 472.854C359.099 470.629 360.548 468.163 361.628 465.53L378.75 423.782L410.704 360.335C421.8 338.303 453.267 338.335 464.319 360.39L494.191 420.003C497.26 426.13 503.526 429.998 510.378 429.998C517.506 429.998 523.971 434.18 526.893 440.682L534.066 456.64Z" fill="url(#paint6_linear_651_6455)"/>
<path d="M122.096 561.066L52.3504 527.831C10.4073 507.845 -38.2857 507.712 -80.3376 527.468C-117.884 545.107 -146.8 577.05 -160.628 616.161L-170.764 644.829C-179.389 669.225 -183.796 694.912 -183.796 720.787L-183.796 754.491C-183.796 896.846 -59.098 1007.03 82.1735 989.501L565.095 929.584C602.091 924.994 614.609 877.648 584.716 855.372C582.053 853.388 579.161 851.731 576.102 850.439L555.754 841.84C519.001 826.309 487.061 801.247 463.232 769.244L445.914 745.984C427.597 721.383 404.586 700.656 378.21 685.001L375.09 683.149C348.8 667.546 319.49 657.721 289.107 654.328L265.31 651.671C228.356 647.544 194.539 628.953 171.254 599.963C158.003 583.465 141.199 570.169 122.096 561.066Z" fill="url(#paint7_linear_651_6455)"/>
<g opacity="0.4">
<path d="M360.618 515.187C361.537 522.536 365.762 530.386 369.282 536.836M371.609 515.237C371.609 520.435 372.517 525.362 373.775 530.392M380.885 526.364V536.467M73.0702 563.401C74.9837 571.751 73.4422 581.986 72.1217 590.417M64.0426 565.726C66.1257 571.398 67.005 577.176 67.5034 583.222M61 581.657L65.1553 592.973M317.065 391.647C317.548 397.92 319.744 404.351 321.397 410.41M327.173 388.76V407.523M338.724 397.42C338.15 400.864 335.836 403.919 335.836 407.523M247.45 673.843C247.933 680.116 250.128 686.547 251.782 692.606M257.557 670.956V689.719M269.109 679.616C268.535 683.06 266.221 686.115 266.221 689.719M109.236 354.887C109.719 361.16 111.914 367.591 113.568 373.65M119.343 352V370.763M130.895 360.66C130.321 364.104 128.007 367.159 128.007 370.763M373.605 745.237C374.088 751.51 376.284 757.941 377.937 764M383.713 742.35V761.113M395.264 751.01C394.69 754.455 392.376 757.51 392.376 761.113" stroke="#57A567" stroke-width="7" stroke-linecap="round"/>
</g>
</g>
<defs>
<linearGradient id="paint0_linear_651_6455" x1="3.74052e-06" y1="-12.5" x2="392.5" y2="350" gradientUnits="userSpaceOnUse">
<stop stop-color="#FEFFE9"/>
<stop offset="1" stop-color="#C4EEFF"/>
</linearGradient>
<linearGradient id="paint1_linear_651_6455" x1="-128" y1="284" x2="505" y2="284" gradientUnits="userSpaceOnUse">
<stop stop-color="#CADFAD"/>
<stop offset="1" stop-color="#F0FFE7"/>
</linearGradient>
<linearGradient id="paint2_linear_651_6455" x1="244.98" y1="291.214" x2="501.803" y2="291.214" gradientUnits="userSpaceOnUse">
<stop stop-color="#CADFAD"/>
<stop offset="1" stop-color="#F0FFE7"/>
</linearGradient>
<linearGradient id="paint3_linear_651_6455" x1="112.305" y1="306.627" x2="252.439" y2="306.627" gradientUnits="userSpaceOnUse">
<stop stop-color="#CADFAD"/>
<stop offset="1" stop-color="#F0FFE7"/>
</linearGradient>
<linearGradient id="paint4_linear_651_6455" x1="307.394" y1="287.205" x2="325.11" y2="564.731" gradientUnits="userSpaceOnUse">
<stop stop-color="#86C88A"/>
<stop offset="1" stop-color="#C1E0B7"/>
</linearGradient>
<linearGradient id="paint5_linear_651_6455" x1="214.995" y1="283" x2="86.3843" y2="510.642" gradientUnits="userSpaceOnUse">
<stop stop-color="#5B9F82"/>
<stop offset="1" stop-color="#94BA95"/>
</linearGradient>
<linearGradient id="paint6_linear_651_6455" x1="425" y1="346.5" x2="263" y2="725" gradientUnits="userSpaceOnUse">
<stop stop-color="#398B75"/>
<stop offset="0.71" stop-color="#98CE80"/>
<stop offset="0.985" stop-color="#B5CC60"/>
</linearGradient>
<linearGradient id="paint7_linear_651_6455" x1="275.874" y1="603.364" x2="214.895" y2="953.467" gradientUnits="userSpaceOnUse">
<stop stop-color="#B7CC62"/>
<stop offset="1" stop-color="#54803B"/>
</linearGradient>
<clipPath id="clip0_651_6455">
<rect width="430" height="932" fill="white"/>
</clipPath>
</defs>
</svg>
