<svg width="25" height="61" viewBox="0 0 25 61" fill="none" xmlns="http://www.w3.org/2000/svg">
<path d="M10.8019 50.4073C10.6537 51.2223 11.1943 52.0032 12.0094 52.1514C12.8244 52.2996 13.6053 51.759 13.7535 50.9439L10.8019 50.4073ZM12.6774 50.0611L11.5613 49.0589L11.5613 49.0589L12.6774 50.0611ZM15.9797 47.5232L15.3022 46.1849L15.3022 46.1849L15.9797 47.5232ZM22.5293 47.8591C23.3577 47.8591 24.0293 47.1876 24.0293 46.3591C24.0293 45.5307 23.3577 44.8591 22.5293 44.8591V47.8591ZM10.3818 51.0733C10.6015 51.8721 11.4271 52.3416 12.2259 52.1219C13.0246 51.9022 13.4941 51.0766 13.2744 50.2778L10.3818 51.0733ZM6.92218 45.6097L7.63114 44.2879L6.92218 45.6097ZM1.93628 42.7908C1.10785 42.7908 0.436279 43.4624 0.436279 44.2908C0.436279 45.1193 1.10785 45.7908 1.93628 45.7908V42.7908ZM10.5 37.5V60.5H13.5V37.5H10.5ZM13.7535 50.9439C13.733 51.0566 13.6985 51.1358 13.6785 51.1759C13.6584 51.216 13.6438 51.2349 13.6476 51.2297C13.651 51.225 13.6623 51.2104 13.6885 51.1803C13.7012 51.1657 13.7155 51.1497 13.7333 51.1299C13.7423 51.1199 13.7511 51.1102 13.7614 51.0988C13.7712 51.0879 13.7823 51.0757 13.7935 51.0633L11.5613 49.0589C11.5163 49.109 11.3591 49.2771 11.2268 49.4578C11.0958 49.6367 10.8822 49.9656 10.8019 50.4073L13.7535 50.9439ZM13.7935 51.0633C14.585 50.1818 15.6103 49.3914 16.6572 48.8615L15.3022 46.1849C13.9168 46.8862 12.5958 47.9068 11.5613 49.0589L13.7935 51.0633ZM16.6572 48.8615C18.3721 47.9933 20.2942 47.8591 22.5293 47.8591V44.8591C20.2569 44.8591 17.7023 44.9698 15.3022 46.1849L16.6572 48.8615ZM13.2744 50.2778C12.4406 47.2458 9.76029 45.4298 7.63114 44.2879L6.21321 46.9316C8.26226 48.0306 9.90369 49.3346 10.3818 51.0733L13.2744 50.2778ZM7.63114 44.2879C5.893 43.3556 3.9863 42.7908 1.93628 42.7908V45.7908C3.41735 45.7908 4.84071 46.1955 6.21321 46.9316L7.63114 44.2879Z" fill="#94CDA0"/>
</svg>
