<svg width="22" height="61" viewBox="0 0 22 61" fill="none" xmlns="http://www.w3.org/2000/svg">
<path d="M10 23.5C10 26.5376 7.76142 29 5 29C2.23858 29 0 26.5376 0 23.5C0 20.4624 2.23858 18 5 18C7.76142 18 10 20.4624 10 23.5Z" fill="#FF6678"/>
<path d="M15 20.5C15 31.2696 12.7614 40 10 40C7.23858 40 5 31.2696 5 20.5C5 9.73045 7.23858 1 10 1C12.7614 1 15 9.73045 15 20.5Z" fill="#FF6678"/>
<path d="M10 17.5C10 20.5376 7.76142 23 5 23C2.23858 23 0 20.5376 0 17.5C0 14.4624 2.23858 12 5 12C7.76142 12 10 14.4624 10 17.5Z" fill="#FF6678"/>
<path d="M21 17.5C21 20.5376 18.7614 23 16 23C13.2386 23 11 20.5376 11 17.5C11 14.4624 13.2386 12 16 12C18.7614 12 21 14.4624 21 17.5Z" fill="#FF6678"/>
<path d="M11 10.5C11 13.5376 8.76142 16 6 16C3.23858 16 1 13.5376 1 10.5C1 7.46243 3.23858 5 6 5C8.76142 5 11 7.46243 11 10.5Z" fill="#FF6678"/>
<path d="M19 10.5C19 13.5376 16.7614 16 14 16C11.2386 16 9 13.5376 9 10.5C9 7.46243 11.2386 5 14 5C16.7614 5 19 7.46243 19 10.5Z" fill="#FF6678"/>
<path d="M15 5.5C15 8.53757 12.7614 11 10 11C7.23858 11 5 8.53757 5 5.5C5 2.46243 7.23858 0 10 0C12.7614 0 15 2.46243 15 5.5Z" fill="#FF6678"/>
<path d="M21 24.5C21 27.5376 18.7614 30 16 30C13.2386 30 11 27.5376 11 24.5C11 21.4624 13.2386 19 16 19C18.7614 19 21 21.4624 21 24.5Z" fill="#FF6678"/>
<path d="M12 31.5C12 34.5376 9.76142 37 7 37C4.23858 37 2 34.5376 2 31.5C2 28.4624 4.23858 26 7 26C9.76142 26 12 28.4624 12 31.5Z" fill="#FF6678"/>
<path d="M19 31.5C19 34.5376 16.7614 37 14 37C11.2386 37 9 34.5376 9 31.5C9 28.4624 11.2386 26 14 26C16.7614 26 19 28.4624 19 31.5Z" fill="#FF6678"/>
<path d="M16 36.5C16 39.5376 13.7614 42 11 42C8.23858 42 6 39.5376 6 36.5C6 33.4624 8.23858 31 11 31C13.7614 31 16 33.4624 16 36.5Z" fill="#FF6678"/>
</svg>
