<svg width="43" height="60" viewBox="0 0 43 60" fill="currentColor" xmlns="http://www.w3.org/2000/svg">
<ellipse cx="4.61314" cy="7.61758" rx="4.61314" ry="7.61758" transform="matrix(0.475129 -0.879916 0.751534 0.659695 0 9.99707)" fill="currentColor"/>
<ellipse cx="4.82702" cy="7.31332" rx="4.82702" ry="7.31332" transform="matrix(0.87179 0.48988 -0.264413 0.96441 11.7701 0)" fill="currentColor"/>
<ellipse cx="3.97494" cy="7.79139" rx="3.97494" ry="7.79139" transform="matrix(0.969142 -0.246502 0.293733 0.955888 5.01465 2.66296)" fill="currentColor"/>
<ellipse cx="4.61314" cy="7.61758" rx="4.61314" ry="7.61758" transform="matrix(0.475129 -0.879916 0.751534 0.659695 3.76941 22.2639)" fill="currentColor"/>
<ellipse cx="4.82702" cy="7.31332" rx="4.82702" ry="7.31332" transform="matrix(0.87179 0.48988 -0.264413 0.96441 15.5396 12.2668)" fill="currentColor"/>
<ellipse cx="3.97494" cy="7.79139" rx="3.97494" ry="7.79139" transform="matrix(0.969142 -0.246502 0.293733 0.955888 8.78406 14.9297)" fill="currentColor"/>
<ellipse cx="4.61314" cy="7.61758" rx="4.61314" ry="7.61758" transform="matrix(0.475129 -0.879916 0.751534 0.659695 7.53882 34.5306)" fill="currentColor"/>
<ellipse cx="4.82702" cy="7.31332" rx="4.82702" ry="7.31332" transform="matrix(0.87179 0.48988 -0.264413 0.96441 19.309 24.5336)" fill="currentColor"/>
<ellipse cx="3.97494" cy="7.79139" rx="3.97494" ry="7.79139" transform="matrix(0.969142 -0.246502 0.293733 0.955888 12.5535 27.1965)" fill="currentColor"/>
<ellipse cx="4.79974" cy="7.33366" rx="4.79974" ry="7.33366" transform="matrix(0.806916 -0.590666 0.388878 0.921289 21.5723 6.5799)" fill="currentColor"/>
<ellipse cx="4.63881" cy="7.56309" rx="4.63881" ry="7.56309" transform="matrix(0.585106 0.810957 -0.665166 0.746695 36.885 2.04919)" fill="currentColor"/>
<ellipse cx="3.9908" cy="7.7547" rx="3.9908" ry="7.7547" transform="matrix(0.988852 0.148904 -0.178985 0.983852 29.5255 1.86316)" fill="currentColor"/>
<ellipse cx="4.79974" cy="7.33366" rx="4.79974" ry="7.33366" transform="matrix(0.806916 -0.590666 0.388878 0.921289 19.2861 19.1461)" fill="currentColor"/>
<ellipse cx="4.63881" cy="7.56309" rx="4.63881" ry="7.56309" transform="matrix(0.585106 0.810957 -0.665166 0.746695 34.5989 14.6154)" fill="currentColor"/>
<ellipse cx="3.9908" cy="7.7547" rx="3.9908" ry="7.7547" transform="matrix(0.988852 0.148904 -0.178985 0.983852 27.2394 14.4293)" fill="currentColor"/>
<ellipse cx="4.79974" cy="7.33366" rx="4.79974" ry="7.33366" transform="matrix(0.806916 -0.590666 0.388878 0.921289 17 31.7123)" fill="currentColor"/>
<ellipse cx="4.63881" cy="7.56309" rx="4.63881" ry="7.56309" transform="matrix(0.585106 0.810957 -0.665166 0.746695 32.3127 27.1816)" fill="currentColor"/>
<ellipse cx="3.9908" cy="7.7547" rx="3.9908" ry="7.7547" transform="matrix(0.988852 0.148904 -0.178985 0.983852 24.9532 26.9955)" fill="currentColor"/>
</svg>
