<svg width="37" height="60" viewBox="0 0 37 60" fill="none" xmlns="http://www.w3.org/2000/svg">
<path fill-rule="evenodd" clip-rule="evenodd" d="M31.8649 6.52827C34.8681 7.6805 37 10.5913 37 14C37 15.8919 36.3433 17.6304 35.2454 19C36.3433 20.3696 37 22.1081 37 24C37 27.9155 34.187 31.174 30.4717 31.8649C29.3195 34.8681 26.4087 37 23 37C21.1081 37 19.3696 36.3433 18 35.2454C16.6304 36.3433 14.8919 37 13 37C9.08448 37 5.82597 34.187 5.13509 30.4717C2.1319 29.3195 0 26.4087 0 23C0 21.3314 0.510849 19.7821 1.38468 18.5C0.510849 17.2179 0 15.6686 0 14C0 10.1997 2.64986 7.0183 6.20269 6.2027C7.01829 2.64986 10.1997 0 14 0C15.8919 0 17.6304 0.656719 19 1.75463C20.3696 0.656719 22.1081 0 24 0C27.9155 0 31.174 2.81297 31.8649 6.52827ZM19 27C23.4183 27 27 23.4183 27 19C27 14.5817 23.4183 11 19 11C14.5817 11 11 14.5817 11 19C11 23.4183 14.5817 27 19 27Z" fill="#FFDA56"/>
</svg>
