<svg width="37" height="60" viewBox="0 0 37 60" fill="currentColor" xmlns="http://www.w3.org/2000/svg">
<path fill-rule="evenodd" clip-rule="evenodd" d="M17 35.9297C17.3511 35.7267 17.6853 35.4977 18 35.2454C18.6016 35.7276 19.2743 36.1247 20 36.4185V46.5459C20.0942 46.44 20.1919 46.3363 20.2928 46.2358C21.009 45.5233 22.2673 44.6174 23.8267 45.0072C24.6304 45.2081 25.119 46.0225 24.9181 46.8262C24.7172 47.6299 23.9028 48.1186 23.0991 47.9176C23.0913 47.9157 23.0847 47.9148 23.0707 47.9164C23.0539 47.9184 23.0161 47.9257 22.9548 47.9528C22.8221 48.0113 22.6346 48.1378 22.4087 48.3626C21.9515 48.8175 21.5465 49.4632 21.3068 49.9459C20.2623 52.049 20.1308 54.4207 20.1308 57.0929C20.1308 57.3116 20.0841 57.5193 20 57.7066V60H17V56.0089C16.9099 55.8162 16.8596 55.6012 16.8596 55.3744C16.8596 54.9372 16.7211 54.4454 16.4801 53.7814C15.7178 51.6812 14.5957 49.6679 13.1107 48.1533C12.1566 47.1802 11.0235 46.4387 9.71784 45.5844L9.49835 45.4407C9.38178 45.3643 9.27437 45.2855 9.19744 45.2289L9.17925 45.2155L9.17923 45.2155C9.1029 45.1593 9.05368 45.1231 9.00477 45.0897C8.96965 45.0658 8.9467 45.0519 8.93422 45.0448C8.15512 44.8267 7.68654 44.0265 7.88401 43.2367C8.08493 42.433 8.89933 41.9443 9.70303 42.1452C10.1426 42.2551 10.4827 42.4664 10.6953 42.6114C10.7916 42.6771 10.8849 42.7458 10.9529 42.7959L10.9529 42.7959L10.9752 42.8124C11.0542 42.8705 11.102 42.9048 11.1424 42.9313C11.2351 42.992 11.3288 43.0532 11.4233 43.1149C12.6692 43.9286 14.0617 44.8381 15.2528 46.053C15.8999 46.7129 16.4809 47.4353 17 48.1965V35.9297Z" fill="currentColor"/>
<circle cx="19" cy="19" r="8" fill="#675C55"/>
</svg>
