<svg width="40" height="54" viewBox="0 0 40 54" fill="currentColor" xmlns="http://www.w3.org/2000/svg">
<path d="M18.0476 40.8727C18.0476 41.7011 18.7192 42.3727 19.5476 42.3727C20.376 42.3727 21.0476 41.7011 21.0476 40.8727H18.0476ZM18.8171 37.3022L17.4033 37.8036L17.4033 37.8036L18.8171 37.3022ZM15.0274 32.1337L15.5507 30.7279L15.5507 30.7279L15.0274 32.1337ZM8.82432 33.4207C8.38525 34.1232 8.59881 35.0486 9.30132 35.4877C10.0038 35.9268 10.9292 35.7132 11.3683 35.0107L8.82432 33.4207ZM18.0476 39.3112C18.0476 40.1396 18.7192 40.8112 19.5476 40.8112C20.376 40.8112 21.0476 40.1396 21.0476 39.3112H18.0476ZM21.657 34.4349L20.5102 33.468L20.5102 33.468L21.657 34.4349ZM26.6018 32.1611L26.2882 33.6279L26.2882 33.6279L26.6018 32.1611ZM28.9782 35.4815C29.4957 36.1284 30.4396 36.2333 31.0865 35.7158C31.7334 35.1982 31.8383 34.2543 31.3208 33.6074L28.9782 35.4815ZM6.64012 38.389C6.94779 37.6198 6.57367 36.7468 5.80449 36.4392C5.03532 36.1315 4.16236 36.5056 3.85469 37.2748L6.64012 38.389ZM5.16522 41.9868L3.66753 42.07L3.66753 42.07L5.16522 41.9868ZM5.76791 40.7312L7.20876 41.1483L7.20876 41.1483L5.76791 40.7312ZM6.87285 37.9688L5.59927 37.1764L5.59926 37.1764L6.87285 37.9688ZM7.04178 37.8912L8.52434 38.1193L8.52434 38.1193L7.04178 37.8912ZM6.50758 38.7724L5.32712 37.8469L5.32712 37.847L6.50758 38.7724ZM4.11051 41.2882L2.89943 40.4032L2.89943 40.4032L4.11051 41.2882ZM3.95071 44.1875L2.99539 43.0311L2.99539 43.0311L3.95071 44.1875ZM4.71321 41.6535L6.18111 41.9621L6.18111 41.9621L4.71321 41.6535ZM6.4254 37.3022L5.23272 36.3925L5.23271 36.3926L6.4254 37.3022ZM7.91386 36.453L7.85885 37.952L7.85885 37.952L7.91386 36.453ZM8.51199 36.7817L9.99883 36.98L9.99883 36.98L8.51199 36.7817ZM7.10114 40.617L5.70976 40.0566L5.70976 40.0566L7.10114 40.617ZM6.31582 42.3338L5.07543 41.4903L5.07543 41.4903L6.31582 42.3338ZM7.36596 39.6765L8.75057 40.2534L8.75057 40.2534L7.36596 39.6765ZM7.75862 37.389L8.08789 35.9256L8.08789 35.9256L7.75862 37.389ZM5.94142 37.2748L5.99551 35.7758L5.99551 35.7758L5.94142 37.2748ZM4.11508 37.4757L4.70882 38.8532L4.70882 38.8532L4.11508 37.4757ZM2.32152 42.7589C2.81858 43.4217 3.75878 43.556 4.42152 43.0589C5.08426 42.5619 5.21858 41.6217 4.72152 40.9589L2.32152 42.7589ZM30.2329 33.1358C29.4095 33.0443 28.6679 33.6376 28.5764 34.461C28.4849 35.2844 29.0782 36.026 29.9016 36.1175L30.2329 33.1358ZM31.058 35.275L30.1835 36.4937L30.1835 36.4937L31.058 35.275ZM34.5509 38.325L35.7032 37.3647L35.7032 37.3647L34.5509 38.325ZM36.4594 41.5074L35.0826 42.1027L35.0826 42.1027L36.4594 41.5074ZM36.7882 43.1374L38.2725 43.3533L38.2725 43.3533L36.7882 43.1374ZM34.7518 42.9273L35.4226 41.5857L35.4226 41.5857L34.7518 42.9273ZM30.3503 39.3112L29.1011 40.1415L29.1011 40.1415L30.3503 39.3112ZM29.6563 35.6311L28.1572 35.5794L29.6563 35.6311ZM29.6746 34.9554L31.0162 35.6262L29.6746 34.9554ZM30.2499 35.3983L29.1686 36.4379L29.1686 36.4379L30.2499 35.3983ZM32.5145 38.0602L33.6797 37.1155L33.6797 37.1155L32.5145 38.0602ZM32.8035 40.99C33.0044 41.7937 33.8188 42.2823 34.6225 42.0814C35.4262 41.8805 35.9148 41.0661 35.7139 40.2624L32.8035 40.99ZM9.76752 36.3732C10.5959 36.3732 11.2675 35.7017 11.2675 34.8732C11.2675 34.0448 10.5959 33.3732 9.76752 33.3732V36.3732ZM7.22435 35.033L6.90226 33.568L7.22435 35.033ZM1.83666 39.9596L3.28701 40.3423L1.83666 39.9596ZM2.6996 44.9272L1.51651 45.8493L1.51651 45.8493L2.6996 44.9272ZM4.44375 45.7856L5.03719 47.1632L4.44375 45.7856ZM6.93214 43.9364L5.84623 42.9016L5.84623 42.9016L6.93214 43.9364ZM10.1145 38.4665L8.66161 38.0937L8.66161 38.0937L10.1145 38.4665ZM10.0963 35.8777L8.87223 36.7447L8.87223 36.7447L10.0963 35.8777ZM11.2675 35.2842C11.2675 34.4557 10.5959 33.7842 9.76752 33.7842C8.9391 33.7842 8.26752 34.4557 8.26752 35.2842H11.2675ZM18 24V53.5H21V24H18ZM21.0476 40.8727C21.0476 39.4045 20.655 37.9968 20.2308 36.8008L17.4033 37.8036C17.7857 38.8818 18.0476 39.9108 18.0476 40.8727H21.0476ZM20.2308 36.8008C19.8895 35.8386 19.4027 34.6077 18.699 33.4981C18.0031 32.401 16.997 31.2663 15.5507 30.7279L14.5042 33.5395C15.0786 33.7533 15.637 34.2716 16.1656 35.105C16.6864 35.9261 17.0841 36.9034 17.4033 37.8036L20.2308 36.8008ZM15.5507 30.7279C14.1653 30.2123 12.7518 30.4391 11.6045 30.9742C10.4626 31.5068 9.4665 32.3932 8.82432 33.4207L11.3683 35.0107C11.7006 34.4791 12.2517 33.9827 12.8726 33.6931C13.488 33.406 14.0528 33.3715 14.5042 33.5395L15.5507 30.7279ZM21.0476 39.3112C21.0476 38.0624 21.7973 36.5956 22.8038 35.4018L20.5102 33.468C19.3118 34.8894 18.0476 37.0312 18.0476 39.3112H21.0476ZM22.8038 35.4018C23.288 34.8275 23.9022 34.2957 24.5474 33.9576C25.1889 33.6213 25.774 33.518 26.2882 33.6279L26.9155 30.6943C25.5263 30.3972 24.2194 30.7423 23.1546 31.3005C22.0934 31.8567 21.1869 32.6654 20.5102 33.468L22.8038 35.4018ZM26.2882 33.6279C27.2754 33.839 28.2177 34.5309 28.9782 35.4815L31.3208 33.6074C30.2955 32.3258 28.8022 31.0977 26.9155 30.6943L26.2882 33.6279ZM3.85469 37.2748C3.62362 37.8525 3.60751 38.4528 3.61481 38.8549C3.61873 39.0706 3.63171 39.2815 3.64237 39.4529C3.65384 39.6375 3.66221 39.7712 3.6646 39.889L6.66398 39.8279C6.66003 39.634 6.64677 39.4305 6.63658 39.2668C6.62558 39.0899 6.61687 38.9412 6.61432 38.8004C6.60867 38.4893 6.64046 38.3881 6.64012 38.389L3.85469 37.2748ZM3.6646 39.889C3.66503 39.9097 3.66522 39.9286 3.66522 39.9459H6.66522C6.66522 39.9059 6.66477 39.8665 6.66398 39.8279L3.6646 39.889ZM3.66522 39.9459C3.66522 40.0077 3.66488 40.0704 3.66429 40.1342L6.66415 40.1622C6.66482 40.0909 6.66522 40.0187 6.66522 39.9459H3.66522ZM3.66429 40.1342C3.65922 40.6755 3.63014 41.3969 3.66753 42.07L6.66291 41.9036C6.63271 41.3599 6.65778 40.8434 6.66415 40.1622L3.66429 40.1342ZM3.66753 42.07C3.6721 42.1522 3.6853 42.3263 3.74931 42.5243C3.78452 42.6331 3.99967 43.2882 4.74902 43.5234C5.53815 43.7711 6.10181 43.3086 6.20568 43.2195C6.37239 43.0765 6.47506 42.927 6.51633 42.8649C6.67511 42.626 6.79921 42.3127 6.86228 42.1508C7.02196 41.7408 7.17936 41.2498 7.20876 41.1483L4.32707 40.3141C4.32792 40.3112 4.29659 40.4124 4.24179 40.5748C4.18958 40.7296 4.12638 40.9091 4.06685 41.0619C3.98739 41.266 3.96929 41.2774 4.01777 41.2044C4.03147 41.1838 4.10855 41.0659 4.25217 40.9427C4.33294 40.8734 4.87599 40.419 5.6475 40.6611C6.37921 40.8908 6.57971 41.5268 6.60375 41.6011C6.65658 41.7645 6.66208 41.8886 6.66291 41.9036L3.66753 42.07ZM7.20876 41.1483C7.38868 40.5267 7.54633 40.0093 7.75228 39.5268L4.99307 38.3492C4.70761 39.018 4.50637 39.6947 4.32707 40.3141L7.20876 41.1483ZM7.75228 39.5268C7.86795 39.2558 7.99627 39.0026 8.14643 38.7613L5.59926 37.1764C5.3558 37.5677 5.159 37.9604 4.99307 38.3492L7.75228 39.5268ZM8.14643 38.7613C8.10903 38.8214 8.07521 38.8656 8.0714 38.8707C8.06006 38.8857 8.05091 38.8972 8.04603 38.9033C8.0358 38.916 8.02805 38.9252 8.02428 38.9296C8.01607 38.9392 8.00992 38.946 8.00517 38.9512C8.00274 38.9538 7.97397 38.9855 7.92178 39.0285C7.89775 39.0482 7.83154 39.1015 7.7328 39.1568C7.68134 39.1856 7.38675 39.3554 6.96497 39.3382C6.71286 39.328 6.40173 39.2489 6.11763 39.0292C5.83984 38.8144 5.69566 38.5485 5.62487 38.3453C5.50377 37.9978 5.55193 37.7106 5.55923 37.6631L8.52434 38.1193C8.53731 38.035 8.58468 37.7223 8.45781 37.3582C8.38415 37.1468 8.23585 36.8749 7.95289 36.6561C7.66362 36.4323 7.34626 36.3513 7.08706 36.3407C6.65109 36.323 6.33885 36.4991 6.26776 36.5388C6.14941 36.6051 6.0616 36.674 6.01551 36.712C5.91919 36.7912 5.84441 36.8693 5.80606 36.9106C5.78334 36.9351 5.76176 36.9594 5.74213 36.9824C5.73264 36.9935 5.72019 37.0083 5.70645 37.0254C5.69981 37.0337 5.68919 37.0471 5.67672 37.0636C5.67177 37.0702 5.63713 37.1155 5.59927 37.1764L8.14643 38.7613ZM5.55923 37.6631C5.57678 37.5491 5.60914 37.4822 5.61302 37.4742C5.61838 37.4631 5.61399 37.4742 5.58829 37.5117C5.56348 37.5478 5.53044 37.5918 5.48439 37.65C5.46146 37.679 5.43856 37.7074 5.41171 37.7408C5.38665 37.772 5.35638 37.8096 5.32712 37.8469L7.68804 39.6979C7.72866 39.6461 7.92103 39.4143 8.06147 39.2097C8.19632 39.0133 8.44731 38.62 8.52434 38.1193L5.55923 37.6631ZM5.32712 37.847C5.29537 37.8874 5.26208 37.9283 5.2272 37.9695L7.51815 39.9064C7.57521 39.8389 7.63196 39.7694 7.68804 39.6979L5.32712 37.847ZM5.2272 37.9695C4.9301 38.3209 4.58763 38.6293 4.13397 39.058L6.19447 41.2384C6.57031 40.8833 7.08221 40.422 7.51815 39.9064L5.2272 37.9695ZM4.13397 39.058C4.09271 39.097 4.05093 39.1366 4.0089 39.1768L6.08259 41.3447C6.11923 41.3097 6.15648 41.2743 6.19447 41.2384L4.13397 39.058ZM4.0089 39.1768C3.65424 39.5161 3.25123 39.9218 2.89943 40.4032L5.3216 42.1732C5.51291 41.9114 5.76046 41.6529 6.08259 41.3447L4.0089 39.1768ZM2.89943 40.4032C2.06323 41.5475 2.02152 42.7455 2.02152 43.6533H5.02152C5.02152 42.8275 5.09165 42.4879 5.3216 42.1732L2.89943 40.4032ZM2.02152 43.6533C2.02152 43.8168 2.0426 44.2517 2.21296 44.6656C2.28222 44.8338 2.52756 45.385 3.16781 45.6441C3.96085 45.9651 4.61829 45.5817 4.90603 45.344L2.99539 43.0311C3.10168 42.9433 3.61475 42.5886 4.29329 42.8632C4.81905 43.076 4.97977 43.5058 4.98709 43.5236C5.02201 43.6084 5.02502 43.6536 5.02174 43.6312C5.01963 43.6168 5.02152 43.6168 5.02152 43.6533H2.02152ZM4.90603 45.344C5.31235 45.0083 5.54142 44.5821 5.67578 44.2608C5.81579 43.926 5.90403 43.5795 5.96471 43.2866C6.02626 42.9894 6.06942 42.696 6.10262 42.4652C6.13981 42.2065 6.1603 42.0611 6.18111 41.9621L3.2453 41.3448C3.19918 41.5642 3.16226 41.8358 3.13315 42.0382C3.10005 42.2685 3.06802 42.4804 3.02705 42.6782C2.98521 42.8802 2.94362 43.0183 2.90804 43.1034C2.86683 43.202 2.87456 43.1309 2.99539 43.0311L4.90603 45.344ZM6.18111 41.9621C6.27627 41.5095 6.37517 41.0781 6.49072 40.6633L3.60077 39.8582C3.46072 40.3609 3.34673 40.8624 3.2453 41.3448L6.18111 41.9621ZM6.49072 40.6633C6.52454 40.5419 6.55963 40.4226 6.59625 40.3051L3.73234 39.4118C3.68579 39.561 3.64207 39.71 3.60077 39.8582L6.49072 40.6633ZM6.59625 40.3051C6.84679 39.5019 7.1646 38.8065 7.61808 38.2119L5.23271 36.3926C4.50109 37.3518 4.049 38.3966 3.73234 39.4118L6.59625 40.3051ZM7.61807 38.2119C7.6211 38.2079 7.62412 38.204 7.62712 38.2001L5.25174 36.3678C5.24536 36.376 5.23902 36.3843 5.23272 36.3925L7.61807 38.2119ZM7.62713 38.2001C7.75627 38.0327 7.83689 37.9701 7.86818 37.9508C7.87956 37.9437 7.87825 37.9463 7.86704 37.9494C7.85489 37.9527 7.84968 37.9516 7.85885 37.952L7.96887 34.954C6.61747 34.9044 5.75338 35.7174 5.25173 36.3678L7.62713 38.2001ZM7.85885 37.952C7.94561 37.9552 7.96087 37.9553 7.9824 37.9572C8.00397 37.9591 7.94573 37.9569 7.85103 37.9259C7.76456 37.8976 7.5091 37.8008 7.29135 37.5242C7.03736 37.2017 6.9912 36.838 7.02514 36.5835L9.99883 36.98C10.0541 36.5651 9.97352 36.0813 9.64839 35.6684C9.3595 35.3015 8.99625 35.1442 8.78451 35.0748C8.40931 34.952 7.99048 34.9548 7.96887 34.954L7.85885 37.952ZM7.02514 36.5835C6.96045 37.0687 6.79275 37.5715 6.54584 38.1563C6.42214 38.4492 6.28889 38.7396 6.14316 39.0603C6.00138 39.3725 5.8493 39.7102 5.70976 40.0566L8.49252 41.1774C8.60515 40.8978 8.73284 40.6131 8.87454 40.3011C9.0123 39.9979 9.16625 39.6626 9.30956 39.3232C9.59666 38.6433 9.88222 37.8545 9.99883 36.98L7.02514 36.5835ZM5.70976 40.0566C5.42011 40.7758 5.30867 41.1473 5.07543 41.4903L7.55621 43.1773C8.02863 42.4825 8.31742 41.6122 8.49252 41.1774L5.70976 40.0566ZM5.07543 41.4903C5.05215 41.5245 5.05892 41.5117 5.0873 41.478C5.09959 41.4634 5.1443 41.4105 5.21496 41.348C5.22972 41.3349 5.4794 41.0961 5.89293 41.0119C6.15474 40.9586 6.55663 40.9549 6.95578 41.1933C7.33923 41.4222 7.51501 41.7531 7.59009 41.9559C7.71656 42.2976 7.67682 42.5887 7.6742 42.6136C7.66521 42.6989 7.65048 42.7602 7.64586 42.7791C7.63971 42.8042 7.63494 42.8194 7.63451 42.8208C7.63383 42.823 7.63843 42.8084 7.65245 42.7711C7.66558 42.7361 7.68323 42.6911 7.70582 42.6356C7.75113 42.524 7.80969 42.3861 7.87842 42.2279C8.13252 41.6432 8.56762 40.6925 8.75057 40.2534L5.98134 39.0995C5.79798 39.5396 5.44023 40.3114 5.12694 41.0324C4.99412 41.338 4.84403 41.6918 4.77038 41.9282C4.75594 41.9745 4.7093 42.1229 4.69073 42.2991C4.68617 42.3423 4.64698 42.647 4.77663 42.9973C4.85329 43.2044 5.03132 43.5383 5.4177 43.769C5.81976 44.0091 6.22526 44.0058 6.49137 43.9516C6.9135 43.8657 7.17456 43.6199 7.20366 43.5941C7.28867 43.5188 7.35067 43.4477 7.38335 43.4088C7.45253 43.3266 7.51253 43.2415 7.55621 43.1773L5.07543 41.4903ZM8.75057 40.2534C8.73994 40.2789 9.10604 39.5172 9.29398 38.9433C9.38989 38.6504 9.51822 38.1947 9.5054 37.7277C9.49878 37.487 9.45246 37.1129 9.22788 36.7422C8.97171 36.3193 8.56218 36.0323 8.08789 35.9256L7.42935 38.8524C7.12739 38.7845 6.83881 38.5885 6.66188 38.2964C6.51653 38.0564 6.5077 37.853 6.50653 37.8101C6.50457 37.7389 6.5155 37.7881 6.44297 38.0096C6.38216 38.1953 6.2962 38.4033 6.20799 38.6011C6.16487 38.6977 6.12421 38.7854 6.08732 38.8648C6.05808 38.9277 6.01204 39.0259 5.98134 39.0995L8.75057 40.2534ZM8.08789 35.9256C7.49215 35.7915 6.87136 35.7884 6.45538 35.784L6.42348 38.7839C6.89571 38.7889 7.19532 38.7997 7.42935 38.8524L8.08789 35.9256ZM6.45538 35.784C6.27934 35.7821 6.13365 35.7808 5.99551 35.7758L5.88733 38.7739C6.07195 38.7805 6.26055 38.7821 6.42348 38.7839L6.45538 35.784ZM5.99551 35.7758C5.46009 35.7565 4.45131 35.6974 3.52134 36.0982L4.70882 38.8532C4.91172 38.7658 5.21641 38.7497 5.88733 38.7739L5.99551 35.7758ZM3.52134 36.0982C2.01972 36.7455 1.50259 38.2303 1.41867 39.374C1.33418 40.5256 1.62839 41.8348 2.32152 42.7589L4.72152 40.9589C4.54852 40.7283 4.36771 40.1785 4.41063 39.5935C4.45413 39.0007 4.66684 38.8713 4.70882 38.8532L3.52134 36.0982ZM29.9016 36.1175C29.7983 36.106 29.7223 36.0825 29.6798 36.067C29.6366 36.0512 29.611 36.0375 29.6055 36.0344C29.5987 36.0307 29.6207 36.0426 29.6797 36.088C29.7375 36.1325 29.7973 36.1827 29.8821 36.2539C29.9206 36.2862 29.9674 36.3255 30.014 36.3633C30.0599 36.4006 30.1188 36.4472 30.1835 36.4937L31.9326 34.0563C31.9366 34.0592 31.9293 34.0541 31.9045 34.034C31.8803 34.0144 31.8519 33.9906 31.8116 33.9568C31.7391 33.8958 31.6276 33.8016 31.509 33.7103C31.3915 33.6199 31.2317 33.5046 31.0464 33.4032C30.8727 33.308 30.5884 33.1753 30.2329 33.1358L29.9016 36.1175ZM30.1835 36.4937C31.4453 37.3992 32.5205 38.2315 33.3986 39.2853L35.7032 37.3647C34.5627 35.9961 33.2159 34.9773 31.9326 34.0563L30.1835 36.4937ZM33.3986 39.2853C34.0838 40.1076 34.6317 41.0599 35.0826 42.1027L37.8362 40.912C37.3 39.672 36.6134 38.4569 35.7032 37.3647L33.3986 39.2853ZM35.0826 42.1027C35.1631 42.2888 35.2298 42.4762 35.2693 42.6447C35.2886 42.727 35.2988 42.7939 35.3029 42.8452C35.3048 42.8702 35.3052 42.8892 35.3049 42.9025C35.3046 42.9158 35.3037 42.9218 35.3038 42.9215L38.2725 43.3533C38.4138 42.3822 38.0569 41.4224 37.8362 40.912L35.0826 42.1027ZM35.3038 42.9215C35.3318 42.729 35.4311 42.4675 35.6664 42.2511C35.8846 42.0506 36.1101 41.9899 36.2195 41.9716C36.3253 41.9538 36.3835 41.9643 36.3666 41.9622C36.3562 41.9609 36.32 41.9548 36.2551 41.9365C35.9584 41.8527 35.6023 41.6755 35.4226 41.5857L34.081 44.269C34.2192 44.3381 34.8254 44.65 35.4395 44.8235C35.7182 44.9022 36.2049 45.0159 36.7156 44.9303C36.9963 44.8832 37.3682 44.7618 37.6968 44.4596C38.0426 44.1417 38.2166 43.7377 38.2725 43.3533L35.3038 42.9215ZM35.4226 41.5857C33.8675 40.8081 32.451 39.7621 31.5996 38.4809L29.1011 40.1415C30.3534 42.0258 32.2776 43.3673 34.081 44.269L35.4226 41.5857ZM31.5996 38.4809C31.1048 37.7364 31.1069 37.0902 31.1554 35.6828L28.1572 35.5794C28.1126 36.8722 28.0005 38.4855 29.1011 40.1415L31.5996 38.4809ZM31.1554 35.6828C31.1581 35.6064 31.1563 35.5385 31.154 35.4869C31.1517 35.4348 31.1482 35.3868 31.1453 35.3504C31.1438 35.3318 31.1423 35.3138 31.141 35.2984C31.1397 35.2821 31.1386 35.2693 31.1375 35.2561C31.1354 35.2301 31.1342 35.2134 31.1335 35.2011C31.1328 35.1888 31.133 35.1868 31.133 35.1919C31.133 35.1966 31.1329 35.2153 31.1302 35.244C31.1276 35.2723 31.1216 35.3203 31.1067 35.3816C31.0917 35.4428 31.0651 35.5285 31.0162 35.6262L28.3329 34.2846C28.197 34.5566 28.1574 34.8118 28.1429 34.9682C28.1278 35.1317 28.133 35.2771 28.1382 35.3697C28.143 35.4534 28.1526 35.5608 28.1546 35.5866C28.1591 35.643 28.1557 35.6241 28.1572 35.5794L31.1554 35.6828ZM31.0162 35.6262C30.8895 35.8797 30.668 36.1329 30.341 36.2899C30.034 36.4373 29.749 36.4448 29.5682 36.4267C29.2528 36.3952 29.0459 36.2664 29.0213 36.2518C28.927 36.1957 28.8945 36.1562 28.9473 36.2057C29.0462 36.2986 29.0725 36.338 29.1686 36.4379L31.3311 34.3586C31.3913 34.4212 31.1636 34.1716 31.0008 34.0187C30.9227 33.9454 30.7573 33.7937 30.5544 33.6731C30.4756 33.6262 30.2204 33.4769 29.8662 33.4416C29.666 33.4216 29.3639 33.4312 29.0425 33.5855C28.7012 33.7494 28.4681 34.0142 28.3329 34.2846L31.0162 35.6262ZM29.1686 36.4379C29.9154 37.2146 30.6012 38.0821 31.3494 39.0049L33.6797 37.1155C32.9714 36.2419 32.1882 35.25 31.3311 34.3586L29.1686 36.4379ZM31.3494 39.0049C31.7469 39.4951 31.9754 39.7198 32.3237 40.1744C32.6308 40.5753 32.7659 40.8397 32.8035 40.99L35.7139 40.2624C35.5215 39.4928 35.0699 38.8261 34.7052 38.35C34.3815 37.9275 33.853 37.3292 33.6797 37.1155L31.3494 39.0049ZM9.76752 33.3732C8.98758 33.3732 7.93914 33.3401 6.90226 33.568L7.54644 36.498C8.18773 36.3571 8.84245 36.3732 9.76752 36.3732V33.3732ZM6.90226 33.568C4.00668 34.2046 1.1974 36.5032 0.386307 39.5768L3.28701 40.3423C3.76927 38.5148 5.5793 36.9305 7.54644 36.498L6.90226 33.568ZM0.386307 39.5768C-0.13183 41.5403 0.126706 44.0662 1.51651 45.8493L3.88269 44.0051C3.18587 43.1111 2.95462 41.6019 3.28701 40.3423L0.386307 39.5768ZM1.51651 45.8493C1.75827 46.1595 2.15302 46.5998 2.66975 46.9216C3.18913 47.2451 4.06828 47.5806 5.03719 47.1632L3.85032 44.408C3.90657 44.3837 3.97012 44.3668 4.03635 44.3599C4.10151 44.3531 4.15692 44.3573 4.19806 44.3645C4.27421 44.3777 4.29465 44.3994 4.25584 44.3752C4.21929 44.3524 4.161 44.3081 4.08709 44.2358C4.01514 44.1655 3.94492 44.0849 3.88269 44.0051L1.51651 45.8493ZM5.03719 47.1632C6.23349 46.6479 7.25878 45.768 8.01804 44.9712L5.84623 42.9016C5.22121 43.5575 4.52212 44.1186 3.85032 44.408L5.03719 47.1632ZM8.01804 44.9712C9.56222 43.3508 10.9768 41.1411 11.5674 38.8394L8.66161 38.0937C8.2279 39.7837 7.1286 41.5559 5.84623 42.9016L8.01804 44.9712ZM11.5674 38.8394C11.6605 38.4768 11.8096 37.8816 11.8525 37.2595C11.8927 36.6768 11.8647 35.7792 11.3203 35.0107L8.87223 36.7447C8.81056 36.6577 8.88452 36.6924 8.85965 37.0529C8.8375 37.3738 8.75436 37.7323 8.66161 38.0937L11.5674 38.8394ZM11.3203 35.0107C11.2506 34.9122 11.1781 34.825 11.1482 34.7885C11.1057 34.7366 11.106 34.7357 11.1121 34.7445C11.122 34.7586 11.1619 34.8175 11.1985 34.912C11.238 35.0139 11.2675 35.1413 11.2675 35.2842H8.26752C8.26752 35.8368 8.49647 36.2381 8.65027 36.4589C8.72171 36.5615 8.79574 36.6509 8.82755 36.6897C8.87192 36.7439 8.87438 36.7478 8.87223 36.7447L11.3203 35.0107Z" fill="currentColor"/>
</svg>
