<svg width="250" height="250" viewBox="0 0 250 250" fill="none" xmlns="http://www.w3.org/2000/svg">
<ellipse cx="125" cy="205.128" rx="43.75" ry="44.8718" transform="rotate(180 125 205.128)" fill="#A99CFF"/>
<path d="M125 121.795L87.1114 184.295H162.889L125 121.795Z" fill="#A99CFF"/>
<ellipse cx="43.75" cy="128.205" rx="44.8718" ry="43.75" transform="rotate(-90 43.75 128.205)" fill="#A99CFF"/>
<path d="M125 128.205L64.0625 89.3451V167.065L125 128.205Z" fill="#A99CFF"/>
<ellipse cx="125" cy="44.8718" rx="43.75" ry="44.8718" fill="#A99CFF"/>
<path d="M125 128.205L162.889 65.7051H87.1114L125 128.205Z" fill="#A99CFF"/>
<circle cx="44.3144" cy="44.3144" r="44.3144" transform="matrix(-0.6981 0.716 -0.6981 -0.716 250 186.542)" fill="#A99CFF"/>
<path d="M130.676 127.616L146.974 199.289L200.556 144.332L130.676 127.616Z" fill="#A99CFF"/>
<circle cx="44.3144" cy="44.3144" r="44.3144" transform="matrix(-0.6981 -0.716 0.6981 -0.716 67.8619 250)" fill="#A99CFF"/>
<path d="M125.314 127.616L55.4337 144.332L109.016 199.288L125.314 127.616Z" fill="#A99CFF"/>
<circle cx="44.3144" cy="44.3144" r="44.3144" transform="matrix(0.6981 -0.716 0.6981 0.716 5.99011 69.6014)" fill="#A99CFF"/>
<path d="M125.314 128.527L109.016 56.8549L55.4337 111.811L125.314 128.527Z" fill="#A99CFF"/>
<circle cx="44.3144" cy="44.3144" r="44.3144" transform="matrix(0.6981 0.716 -0.6981 0.716 181.878 6.14362)" fill="#A99CFF"/>
<path d="M124.425 128.527L194.306 111.811L140.723 56.8549L124.425 128.527Z" fill="#A99CFF"/>
<ellipse cx="206.25" cy="128.205" rx="44.8718" ry="43.75" transform="rotate(90 206.25 128.205)" fill="#A99CFF"/>
<path d="M125 128.205L185.938 167.065V89.345L125 128.205Z" fill="#A99CFF"/>
<circle cx="102.5" cy="92.5" r="12.5" fill="white"/>
<circle cx="142.5" cy="92.5" r="12.5" fill="white"/>
<circle cx="82.5" cy="127.5" r="12.5" fill="white"/>
<circle cx="102.5" cy="162.5" r="12.5" fill="white"/>
<circle cx="147.5" cy="162.5" r="12.5" fill="white"/>
<circle cx="162.5" cy="127.5" r="12.5" fill="white"/>
</svg>
