<svg width="52" height="52" viewBox="0 0 52 52" fill="none" xmlns="http://www.w3.org/2000/svg">
<path fill-rule="evenodd" clip-rule="evenodd" d="M44.2049 29.4236C44.9798 29.8352 45.5777 30.4852 45.9984 31.1352C46.8177 32.4786 46.7512 34.1252 45.9541 35.5769L44.4041 38.1769C43.5849 39.5636 42.057 40.4302 40.4849 40.4302C39.7099 40.4302 38.8464 40.2136 38.1378 39.7802C37.5621 39.4119 36.8979 39.2819 36.1893 39.2819C33.9972 39.2819 32.1594 41.0802 32.093 43.2252C32.093 45.7169 30.0559 47.6669 27.5095 47.6669H24.4981C21.9296 47.6669 19.8925 45.7169 19.8925 43.2252C19.8482 41.0802 18.0104 39.2819 15.8183 39.2819C15.0876 39.2819 14.4233 39.4119 13.8698 39.7802C13.1612 40.2136 12.2755 40.4302 11.5227 40.4302C9.92841 40.4302 8.40058 39.5636 7.58131 38.1769L6.05349 35.5769C5.23422 34.1686 5.18993 32.4786 6.0092 31.1352C6.36348 30.4852 7.02775 29.8352 7.78059 29.4236C8.40058 29.1202 8.79914 28.6219 9.17557 28.0369C10.2827 26.1736 9.61841 23.7252 7.73631 22.6202C5.54421 21.3852 4.83565 18.6336 6.09777 16.4886L7.58131 13.9319C8.86557 11.7869 11.6112 11.0286 13.8255 12.2852C15.7519 13.3252 18.254 12.6319 19.3832 10.7902C19.7375 10.1836 19.9368 9.53356 19.8925 8.88356C19.8482 8.03856 20.0918 7.23689 20.5125 6.58689C21.3317 5.24356 22.8153 4.37689 24.4317 4.33356H27.5538C29.1923 4.33356 30.6758 5.24356 31.4951 6.58689C31.8937 7.23689 32.1594 8.03856 32.093 8.88356C32.0487 9.53356 32.248 10.1836 32.6022 10.7902C33.7315 12.6319 36.2336 13.3252 38.1821 12.2852C40.3742 11.0286 43.142 11.7869 44.4041 13.9319L45.8877 16.4886C47.1719 18.6336 46.4634 21.3852 44.2491 22.6202C42.367 23.7252 41.7028 26.1736 42.832 28.0369C43.1863 28.6219 43.5849 29.1202 44.2049 29.4236ZM19.7375 26.0219C19.7375 29.4236 22.5496 32.1319 26.0259 32.1319C29.5023 32.1319 32.248 29.4236 32.248 26.0219C32.248 22.6202 29.5023 19.8902 26.0259 19.8902C22.5496 19.8902 19.7375 22.6202 19.7375 26.0219Z" fill="#8B7CEC"/>
</svg>
