<svg width="47" height="47" viewBox="0 0 47 47" fill="none" xmlns="http://www.w3.org/2000/svg">
<ellipse cx="23.1249" cy="37.9485" rx="8.09371" ry="8.30124" transform="rotate(180 23.1249 37.9485)" fill="#8B7CEC"/>
<path d="M23.1248 22.5319L16.1154 34.0944H30.1342L23.1248 22.5319Z" fill="#8B7CEC"/>
<ellipse cx="8.09371" cy="23.7178" rx="8.30124" ry="8.09371" transform="rotate(-90 8.09371 23.7178)" fill="#8B7CEC"/>
<path d="M23.1249 23.7178L11.8515 16.5287V30.9069L23.1249 23.7178Z" fill="#8B7CEC"/>
<ellipse cx="23.1249" cy="8.30124" rx="8.09371" ry="8.30124" fill="#8B7CEC"/>
<path d="M23.125 23.7178L30.1343 12.1554H16.1156L23.125 23.7178Z" fill="#8B7CEC"/>
<circle cx="8.19813" cy="8.19813" r="8.19813" transform="matrix(-0.6981 0.716 -0.6981 -0.716 46.2498 34.5101)" fill="#8B7CEC"/>
<path d="M24.1748 23.6089L27.19 36.8682L37.1027 26.7013L24.1748 23.6089Z" fill="#8B7CEC"/>
<circle cx="8.19813" cy="8.19813" r="8.19813" transform="matrix(-0.6981 -0.716 0.6981 -0.716 12.5544 46.2498)" fill="#8B7CEC"/>
<path d="M23.183 23.6088L10.2552 26.7013L20.1679 36.8682L23.183 23.6088Z" fill="#8B7CEC"/>
<circle cx="8.19813" cy="8.19813" r="8.19813" transform="matrix(0.6981 -0.716 0.6981 0.716 1.10815 12.8762)" fill="#8B7CEC"/>
<path d="M23.183 23.7775L20.1678 10.5181L10.2551 20.685L23.183 23.7775Z" fill="#8B7CEC"/>
<circle cx="8.19813" cy="8.19813" r="8.19813" transform="matrix(0.6981 0.716 -0.6981 0.716 33.6473 1.13654)" fill="#8B7CEC"/>
<path d="M23.0186 23.7775L35.9465 20.685L26.0338 10.5181L23.0186 23.7775Z" fill="#8B7CEC"/>
<ellipse cx="38.156" cy="23.7178" rx="8.30124" ry="8.09371" transform="rotate(90 38.156 23.7178)" fill="#8B7CEC"/>
<path d="M23.1249 23.7178L34.3983 30.9069V16.5287L23.1249 23.7178Z" fill="#8B7CEC"/>
<circle cx="18.9624" cy="17.1124" r="2.31249" fill="white"/>
<circle cx="26.3624" cy="17.1124" r="2.31249" fill="white"/>
<circle cx="15.2624" cy="23.5874" r="2.31249" fill="white"/>
<circle cx="18.9624" cy="30.0624" r="2.31249" fill="white"/>
<circle cx="27.2873" cy="30.0624" r="2.31249" fill="white"/>
<circle cx="30.0624" cy="23.5874" r="2.31249" fill="white"/>
</svg>
