<svg width="41" height="41" viewBox="0 0 41 41" fill="none" xmlns="http://www.w3.org/2000/svg">
<ellipse cx="11.1324" cy="10.1048" rx="9.77484" ry="10.1048" fill="#8B7CEC"/>
<path d="M21.7219 33.6828C21.7219 41.7438 16.8593 40.9807 10.8609 40.9807C4.8626 40.9807 0 41.7438 0 33.6828C0 25.6217 4.8626 19.0869 10.8609 19.0869C16.8593 19.0869 21.7219 25.6217 21.7219 33.6828Z" fill="#8B7CEC"/>
<ellipse cx="32.5284" cy="14.6277" rx="7.81987" ry="7.89111" fill="#8B7CEC"/>
<path d="M40.9999 33.0403C40.9999 39.3354 37.1098 38.7394 32.3112 38.7394C27.5125 38.7394 23.6224 39.3354 23.6224 33.0403C23.6224 26.7452 27.5125 21.642 32.3112 21.642C37.1098 21.642 40.9999 26.7452 40.9999 33.0403Z" fill="#8B7CEC"/>
</svg>
