<svg width="66" height="102" viewBox="0 0 66 102" fill="none" xmlns="http://www.w3.org/2000/svg">
<path d="M33 4V97.5" stroke="#833C14" stroke-width="8" stroke-linecap="round"/>
<rect y="8" width="66" height="54" rx="10" fill="#833C14"/>
<path d="M15.8957 53.9C15.8223 53.9 15.7623 53.8767 15.7157 53.83C15.669 53.7833 15.6457 53.7233 15.6457 53.65V47.05C15.6457 46.9767 15.669 46.9167 15.7157 46.87C15.7623 46.8233 15.8223 46.8 15.8957 46.8H17.0257C17.0923 46.8 17.149 46.8233 17.1957 46.87C17.249 46.9167 17.2757 46.9767 17.2757 47.05V47.42C17.429 47.2133 17.6323 47.0433 17.8857 46.91C18.139 46.77 18.4523 46.7 18.8257 46.7C19.159 46.7 19.4523 46.7533 19.7057 46.86C19.959 46.96 20.1757 47.11 20.3557 47.31C20.5357 47.51 20.6757 47.7533 20.7757 48.04C20.8823 48.3267 20.9423 48.6567 20.9557 49.03C20.9623 49.1633 20.9657 49.2867 20.9657 49.4C20.9657 49.5133 20.9623 49.6367 20.9557 49.77C20.9423 50.13 20.8857 50.4533 20.7857 50.74C20.6857 51.0267 20.5457 51.27 20.3657 51.47C20.1857 51.67 19.9657 51.8267 19.7057 51.94C19.4523 52.0467 19.159 52.1 18.8257 52.1C18.499 52.1 18.2123 52.0433 17.9657 51.93C17.7257 51.81 17.5257 51.6433 17.3657 51.43V53.65C17.3657 53.7233 17.3423 53.7833 17.2957 53.83C17.249 53.8767 17.189 53.9 17.1157 53.9H15.8957ZM18.2857 50.76C18.5123 50.76 18.689 50.7133 18.8157 50.62C18.9423 50.5267 19.0323 50.4 19.0857 50.24C19.1457 50.08 19.1823 49.9033 19.1957 49.71C19.209 49.5033 19.209 49.2967 19.1957 49.09C19.1823 48.8967 19.1457 48.72 19.0857 48.56C19.0323 48.4 18.9423 48.2733 18.8157 48.18C18.689 48.0867 18.5123 48.04 18.2857 48.04C18.0657 48.04 17.889 48.09 17.7557 48.19C17.6223 48.2833 17.5257 48.4067 17.4657 48.56C17.4057 48.7133 17.3723 48.88 17.3657 49.06C17.359 49.1867 17.3557 49.31 17.3557 49.43C17.3557 49.55 17.359 49.6767 17.3657 49.81C17.3723 49.9767 17.409 50.1333 17.4757 50.28C17.5423 50.42 17.6423 50.5367 17.7757 50.63C17.909 50.7167 18.079 50.76 18.2857 50.76ZM22.2043 52C22.1309 52 22.0709 51.9767 22.0243 51.93C21.9776 51.8833 21.9543 51.8233 21.9543 51.75V47.05C21.9543 46.9833 21.9776 46.9267 22.0243 46.88C22.0709 46.8267 22.1309 46.8 22.2043 46.8H23.3543C23.4276 46.8 23.4876 46.8267 23.5343 46.88C23.5809 46.9267 23.6043 46.9833 23.6043 47.05V47.45C23.7843 47.2433 23.9976 47.0833 24.2443 46.97C24.4976 46.8567 24.7809 46.8 25.0943 46.8H25.5343C25.6009 46.8 25.6576 46.8233 25.7043 46.87C25.7576 46.9167 25.7843 46.9767 25.7843 47.05V48.08C25.7843 48.1467 25.7576 48.2067 25.7043 48.26C25.6576 48.3067 25.6009 48.33 25.5343 48.33H24.5643C24.2909 48.33 24.0776 48.4067 23.9243 48.56C23.7776 48.7067 23.7043 48.9167 23.7043 49.19V51.75C23.7043 51.8233 23.6776 51.8833 23.6243 51.93C23.5776 51.9767 23.5176 52 23.4443 52H22.2043ZM26.7453 52C26.6719 52 26.6119 51.9767 26.5653 51.93C26.5186 51.8833 26.4953 51.8233 26.4953 51.75V47.05C26.4953 46.9767 26.5186 46.9167 26.5653 46.87C26.6119 46.8233 26.6719 46.8 26.7453 46.8H27.9253C27.9919 46.8 28.0486 46.8233 28.0953 46.87C28.1486 46.9167 28.1753 46.9767 28.1753 47.05V51.75C28.1753 51.8233 28.1486 51.8833 28.0953 51.93C28.0486 51.9767 27.9919 52 27.9253 52H26.7453ZM26.7353 46.05C26.6619 46.05 26.6019 46.0267 26.5553 45.98C26.5086 45.9333 26.4853 45.8733 26.4853 45.8V44.91C26.4853 44.8367 26.5086 44.7767 26.5553 44.73C26.6019 44.6767 26.6619 44.65 26.7353 44.65H27.9253C27.9986 44.65 28.0586 44.6767 28.1053 44.73C28.1586 44.7767 28.1853 44.8367 28.1853 44.91V45.8C28.1853 45.8733 28.1586 45.9333 28.1053 45.98C28.0586 46.0267 27.9986 46.05 27.9253 46.05H26.7353ZM31.1968 52C31.0968 52 31.0235 51.9767 30.9768 51.93C30.9302 51.8767 30.8902 51.8167 30.8568 51.75L28.9668 47.11C28.9535 47.0833 28.9468 47.0533 28.9468 47.02C28.9468 46.96 28.9668 46.91 29.0068 46.87C29.0535 46.8233 29.1102 46.8 29.1768 46.8H30.3068C30.3935 46.8 30.4602 46.8233 30.5068 46.87C30.5535 46.9167 30.5835 46.9633 30.5968 47.01L31.7268 50.08L32.8668 47.01C32.8802 46.9633 32.9102 46.9167 32.9568 46.87C33.0035 46.8233 33.0702 46.8 33.1568 46.8H34.2868C34.3468 46.8 34.4002 46.8233 34.4468 46.87C34.4935 46.91 34.5168 46.96 34.5168 47.02C34.5168 47.0533 34.5102 47.0833 34.4968 47.11L32.6068 51.75C32.5802 51.8167 32.5402 51.8767 32.4868 51.93C32.4402 51.9767 32.3635 52 32.2568 52H31.1968ZM36.6295 52.1C36.2695 52.1 35.9462 52.0333 35.6595 51.9C35.3795 51.76 35.1562 51.5733 34.9895 51.34C34.8228 51.1067 34.7395 50.8433 34.7395 50.55C34.7395 50.0767 34.9328 49.7033 35.3195 49.43C35.7062 49.15 36.2195 48.96 36.8595 48.86L38.1095 48.67V48.53C38.1095 48.29 38.0595 48.1067 37.9595 47.98C37.8595 47.8533 37.6762 47.79 37.4095 47.79C37.2228 47.79 37.0695 47.8267 36.9495 47.9C36.8362 47.9733 36.7462 48.0733 36.6795 48.2C36.6195 48.2867 36.5362 48.33 36.4295 48.33H35.3095C35.2362 48.33 35.1795 48.31 35.1395 48.27C35.0995 48.2233 35.0828 48.17 35.0895 48.11C35.0895 47.99 35.1328 47.8533 35.2195 47.7C35.3128 47.54 35.4528 47.3833 35.6395 47.23C35.8262 47.0767 36.0662 46.95 36.3595 46.85C36.6528 46.75 37.0062 46.7 37.4195 46.7C37.8528 46.7 38.2228 46.75 38.5295 46.85C38.8362 46.95 39.0828 47.09 39.2695 47.27C39.4628 47.45 39.6062 47.6633 39.6995 47.91C39.7928 48.15 39.8395 48.4167 39.8395 48.71V51.75C39.8395 51.8233 39.8128 51.8833 39.7595 51.93C39.7128 51.9767 39.6562 52 39.5895 52H38.4295C38.3562 52 38.2962 51.9767 38.2495 51.93C38.2028 51.8833 38.1795 51.8233 38.1795 51.75V51.4C38.0928 51.5267 37.9762 51.6433 37.8295 51.75C37.6828 51.8567 37.5095 51.94 37.3095 52C37.1162 52.0667 36.8895 52.1 36.6295 52.1ZM37.0995 50.96C37.2928 50.96 37.4662 50.92 37.6195 50.84C37.7795 50.7533 37.9028 50.6233 37.9895 50.45C38.0828 50.27 38.1295 50.0467 38.1295 49.78V49.64L37.2795 49.79C36.9662 49.8433 36.7362 49.9267 36.5895 50.04C36.4495 50.1467 36.3795 50.2733 36.3795 50.42C36.3795 50.5333 36.4128 50.63 36.4795 50.71C36.5462 50.79 36.6328 50.8533 36.7395 50.9C36.8462 50.94 36.9662 50.96 37.0995 50.96ZM43.5889 52C43.1622 52 42.7922 51.9333 42.4789 51.8C42.1722 51.66 41.9355 51.4467 41.7689 51.16C41.6022 50.8667 41.5189 50.49 41.5189 50.03V48.11H40.7389C40.6655 48.11 40.6022 48.0867 40.5489 48.04C40.5022 47.9933 40.4789 47.9333 40.4789 47.86V47.05C40.4789 46.9767 40.5022 46.9167 40.5489 46.87C40.6022 46.8233 40.6655 46.8 40.7389 46.8H41.5189V45.15C41.5189 45.0767 41.5422 45.0167 41.5889 44.97C41.6422 44.9233 41.7022 44.9 41.7689 44.9H42.9289C43.0022 44.9 43.0622 44.9233 43.1089 44.97C43.1555 45.0167 43.1789 45.0767 43.1789 45.15V46.8H44.4289C44.5022 46.8 44.5622 46.8233 44.6089 46.87C44.6555 46.9167 44.6789 46.9767 44.6789 47.05V47.86C44.6789 47.9333 44.6555 47.9933 44.6089 48.04C44.5622 48.0867 44.5022 48.11 44.4289 48.11H43.1789V49.89C43.1789 50.1167 43.2222 50.2967 43.3089 50.43C43.3955 50.5633 43.5422 50.63 43.7489 50.63H44.5189C44.5922 50.63 44.6522 50.6533 44.6989 50.7C44.7455 50.7467 44.7689 50.8067 44.7689 50.88V51.75C44.7689 51.8233 44.7455 51.8833 44.6989 51.93C44.6522 51.9767 44.5922 52 44.5189 52H43.5889ZM47.9968 52.1C47.2102 52.1 46.5835 51.8867 46.1168 51.46C45.6502 51.0333 45.4068 50.4 45.3868 49.56C45.3868 49.5133 45.3868 49.4533 45.3868 49.38C45.3868 49.3067 45.3868 49.25 45.3868 49.21C45.4068 48.6833 45.5235 48.2333 45.7368 47.86C45.9568 47.48 46.2568 47.1933 46.6368 47C47.0235 46.8 47.4735 46.7 47.9868 46.7C48.5735 46.7 49.0568 46.8167 49.4368 47.05C49.8235 47.2833 50.1135 47.6 50.3068 48C50.5002 48.4 50.5968 48.8567 50.5968 49.37V49.61C50.5968 49.6833 50.5702 49.7433 50.5168 49.79C50.4702 49.8367 50.4135 49.86 50.3468 49.86H47.1468C47.1468 49.8667 47.1468 49.8767 47.1468 49.89C47.1468 49.9033 47.1468 49.9167 47.1468 49.93C47.1535 50.1233 47.1868 50.3 47.2468 50.46C47.3068 50.62 47.4002 50.7467 47.5268 50.84C47.6535 50.9333 47.8068 50.98 47.9868 50.98C48.1202 50.98 48.2302 50.96 48.3168 50.92C48.4102 50.8733 48.4868 50.8233 48.5468 50.77C48.6068 50.71 48.6535 50.66 48.6868 50.62C48.7468 50.5533 48.7935 50.5133 48.8268 50.5C48.8668 50.48 48.9268 50.47 49.0068 50.47H50.2468C50.3135 50.47 50.3668 50.49 50.4068 50.53C50.4535 50.5633 50.4735 50.6133 50.4668 50.68C50.4602 50.7933 50.4035 50.93 50.2968 51.09C50.1902 51.25 50.0335 51.41 49.8268 51.57C49.6268 51.7233 49.3735 51.85 49.0668 51.95C48.7602 52.05 48.4035 52.1 47.9968 52.1ZM47.1468 48.87H48.8368V48.85C48.8368 48.6367 48.8035 48.45 48.7368 48.29C48.6768 48.13 48.5802 48.0067 48.4468 47.92C48.3202 47.8333 48.1668 47.79 47.9868 47.79C47.8068 47.79 47.6535 47.8333 47.5268 47.92C47.4068 48.0067 47.3135 48.13 47.2468 48.29C47.1802 48.45 47.1468 48.6367 47.1468 48.85V48.87Z" fill="white"/>
<g clip-path="url(#clip0_651_6447)">
<path d="M24.875 40.5C24.3594 40.5 23.918 40.3164 23.5509 39.9491C23.1836 39.582 23 39.1406 23 38.625V25.0625C23 24.5469 23.1836 24.1054 23.5509 23.7381C23.918 23.371 24.3594 23.1875 24.875 23.1875H27.0625V20.1875C27.0625 18.5448 27.6418 17.1446 28.8003 15.9869C29.9586 14.829 31.3597 14.25 33.0034 14.25C34.647 14.25 36.0469 14.829 37.2031 15.9869C38.3594 17.1446 38.9375 18.5448 38.9375 20.1875V23.1875H41.125C41.6406 23.1875 42.0821 23.371 42.4494 23.7381C42.8165 24.1054 43 24.5469 43 25.0625V38.625C43 39.1406 42.8165 39.582 42.4494 39.9491C42.0821 40.3164 41.6406 40.5 41.125 40.5H24.875ZM24.875 38.625H41.125V25.0625H24.875V38.625ZM33.0053 34.25C33.6684 34.25 34.2344 34.0205 34.7031 33.5616C35.1719 33.1026 35.4062 32.5508 35.4062 31.9062C35.4062 31.2812 35.1701 30.7135 34.6978 30.2031C34.2255 29.6927 33.6578 29.4375 32.9947 29.4375C32.3316 29.4375 31.7656 29.6927 31.2969 30.2031C30.8281 30.7135 30.5938 31.2865 30.5938 31.9219C30.5938 32.5573 30.8299 33.1042 31.3022 33.5625C31.7745 34.0208 32.3422 34.25 33.0053 34.25ZM28.9375 23.1875H37.0625V20.1875C37.0625 19.059 36.6679 18.0998 35.8787 17.31C35.0896 16.52 34.1312 16.125 33.0037 16.125C31.8762 16.125 30.9167 16.52 30.125 17.31C29.3333 18.0998 28.9375 19.059 28.9375 20.1875V23.1875Z" fill="white"/>
</g>
<defs>
<clipPath id="clip0_651_6447">
<rect width="30" height="30" fill="white" transform="translate(18 13)"/>
</clipPath>
</defs>
</svg>
