<svg width="66" height="102" viewBox="0 0 66 102" fill="none" xmlns="http://www.w3.org/2000/svg">
<path d="M33 4V97.5" stroke="#FFC69A" stroke-width="8" stroke-linecap="round"/>
<rect y="8" width="66" height="54" rx="10" fill="#FFC69A"/>
<path d="M19.0226 53.9C18.9493 53.9 18.8893 53.8767 18.8426 53.83C18.796 53.7833 18.7726 53.7233 18.7726 53.65V47.05C18.7726 46.9767 18.796 46.9167 18.8426 46.87C18.8893 46.8233 18.9493 46.8 19.0226 46.8H20.1526C20.2193 46.8 20.276 46.8233 20.3226 46.87C20.376 46.9167 20.4026 46.9767 20.4026 47.05V47.42C20.556 47.2133 20.7593 47.0433 21.0126 46.91C21.266 46.77 21.5793 46.7 21.9526 46.7C22.286 46.7 22.5793 46.7533 22.8326 46.86C23.086 46.96 23.3026 47.11 23.4826 47.31C23.6626 47.51 23.8026 47.7533 23.9026 48.04C24.0093 48.3267 24.0693 48.6567 24.0826 49.03C24.0893 49.1633 24.0926 49.2867 24.0926 49.4C24.0926 49.5133 24.0893 49.6367 24.0826 49.77C24.0693 50.13 24.0126 50.4533 23.9126 50.74C23.8126 51.0267 23.6726 51.27 23.4926 51.47C23.3126 51.67 23.0926 51.8267 22.8326 51.94C22.5793 52.0467 22.286 52.1 21.9526 52.1C21.626 52.1 21.3393 52.0433 21.0926 51.93C20.8526 51.81 20.6526 51.6433 20.4926 51.43V53.65C20.4926 53.7233 20.4693 53.7833 20.4226 53.83C20.376 53.8767 20.316 53.9 20.2426 53.9H19.0226ZM21.4126 50.76C21.6393 50.76 21.816 50.7133 21.9426 50.62C22.0693 50.5267 22.1593 50.4 22.2126 50.24C22.2726 50.08 22.3093 49.9033 22.3226 49.71C22.336 49.5033 22.336 49.2967 22.3226 49.09C22.3093 48.8967 22.2726 48.72 22.2126 48.56C22.1593 48.4 22.0693 48.2733 21.9426 48.18C21.816 48.0867 21.6393 48.04 21.4126 48.04C21.1926 48.04 21.016 48.09 20.8826 48.19C20.7493 48.2833 20.6526 48.4067 20.5926 48.56C20.5326 48.7133 20.4993 48.88 20.4926 49.06C20.486 49.1867 20.4826 49.31 20.4826 49.43C20.4826 49.55 20.486 49.6767 20.4926 49.81C20.4993 49.9767 20.536 50.1333 20.6026 50.28C20.6693 50.42 20.7693 50.5367 20.9026 50.63C21.036 50.7167 21.206 50.76 21.4126 50.76ZM26.9912 52.1C26.6112 52.1 26.2712 52.0133 25.9712 51.84C25.6779 51.6667 25.4479 51.4133 25.2812 51.08C25.1145 50.74 25.0312 50.3267 25.0312 49.84V47.05C25.0312 46.9767 25.0545 46.9167 25.1012 46.87C25.1479 46.8233 25.2079 46.8 25.2812 46.8H26.5312C26.6045 46.8 26.6645 46.8233 26.7112 46.87C26.7579 46.9167 26.7812 46.9767 26.7812 47.05V49.78C26.7812 50.4333 27.0745 50.76 27.6612 50.76C27.9345 50.76 28.1512 50.6767 28.3112 50.51C28.4779 50.3367 28.5612 50.0933 28.5612 49.78V47.05C28.5612 46.9767 28.5845 46.9167 28.6312 46.87C28.6779 46.8233 28.7379 46.8 28.8112 46.8H30.0612C30.1345 46.8 30.1945 46.8233 30.2412 46.87C30.2879 46.9167 30.3112 46.9767 30.3112 47.05V51.75C30.3112 51.8233 30.2879 51.8833 30.2412 51.93C30.1945 51.9767 30.1345 52 30.0612 52H28.9012C28.8345 52 28.7745 51.9767 28.7212 51.93C28.6745 51.8833 28.6512 51.8233 28.6512 51.75V51.37C28.4779 51.61 28.2512 51.7933 27.9712 51.92C27.6979 52.04 27.3712 52.1 26.9912 52.1ZM34.6675 52.1C34.2941 52.1 33.9808 52.0367 33.7275 51.91C33.4808 51.7833 33.2775 51.6233 33.1175 51.43V51.75C33.1175 51.8233 33.0908 51.8833 33.0375 51.93C32.9908 51.9767 32.9341 52 32.8675 52H31.7375C31.6641 52 31.6041 51.9767 31.5575 51.93C31.5108 51.8833 31.4875 51.8233 31.4875 51.75V45.15C31.4875 45.0767 31.5108 45.0167 31.5575 44.97C31.6041 44.9233 31.6641 44.9 31.7375 44.9H32.9575C33.0308 44.9 33.0908 44.9233 33.1375 44.97C33.1841 45.0167 33.2075 45.0767 33.2075 45.15V47.29C33.3675 47.1167 33.5675 46.9767 33.8075 46.87C34.0541 46.7567 34.3408 46.7 34.6675 46.7C35.0008 46.7 35.2941 46.7567 35.5475 46.87C35.8075 46.9767 36.0275 47.1333 36.2075 47.34C36.3875 47.5467 36.5275 47.7933 36.6275 48.08C36.7275 48.3667 36.7841 48.69 36.7975 49.05C36.8041 49.1767 36.8075 49.2933 36.8075 49.4C36.8075 49.5 36.8041 49.6167 36.7975 49.75C36.7841 50.1233 36.7241 50.4567 36.6175 50.75C36.5175 51.0367 36.3775 51.2833 36.1975 51.49C36.0175 51.69 35.8008 51.8433 35.5475 51.95C35.2941 52.05 35.0008 52.1 34.6675 52.1ZM34.1275 50.76C34.3541 50.76 34.5308 50.7133 34.6575 50.62C34.7841 50.5267 34.8741 50.4 34.9275 50.24C34.9875 50.08 35.0241 49.9033 35.0375 49.71C35.0508 49.5033 35.0508 49.2967 35.0375 49.09C35.0241 48.8967 34.9875 48.72 34.9275 48.56C34.8741 48.4 34.7841 48.2733 34.6575 48.18C34.5308 48.0867 34.3541 48.04 34.1275 48.04C33.9208 48.04 33.7508 48.0867 33.6175 48.18C33.4841 48.2667 33.3841 48.3833 33.3175 48.53C33.2508 48.67 33.2141 48.8233 33.2075 48.99C33.2008 49.1167 33.1975 49.24 33.1975 49.36C33.1975 49.48 33.2008 49.6067 33.2075 49.74C33.2141 49.92 33.2475 50.0867 33.3075 50.24C33.3675 50.3933 33.4641 50.52 33.5975 50.62C33.7308 50.7133 33.9075 50.76 34.1275 50.76ZM38.0461 52C37.9727 52 37.9127 51.9767 37.8661 51.93C37.8194 51.8833 37.7961 51.8233 37.7961 51.75V45.15C37.7961 45.0767 37.8194 45.0167 37.8661 44.97C37.9127 44.9233 37.9727 44.9 38.0461 44.9H39.2261C39.2994 44.9 39.3594 44.9233 39.4061 44.97C39.4527 45.0167 39.4761 45.0767 39.4761 45.15V51.75C39.4761 51.8233 39.4527 51.8833 39.4061 51.93C39.3594 51.9767 39.2994 52 39.2261 52H38.0461ZM40.9074 52C40.834 52 40.774 51.9767 40.7274 51.93C40.6807 51.8833 40.6574 51.8233 40.6574 51.75V47.05C40.6574 46.9767 40.6807 46.9167 40.7274 46.87C40.774 46.8233 40.834 46.8 40.9074 46.8H42.0874C42.154 46.8 42.2107 46.8233 42.2574 46.87C42.3107 46.9167 42.3374 46.9767 42.3374 47.05V51.75C42.3374 51.8233 42.3107 51.8833 42.2574 51.93C42.2107 51.9767 42.154 52 42.0874 52H40.9074ZM40.8974 46.05C40.824 46.05 40.764 46.0267 40.7174 45.98C40.6707 45.9333 40.6474 45.8733 40.6474 45.8V44.91C40.6474 44.8367 40.6707 44.7767 40.7174 44.73C40.764 44.6767 40.824 44.65 40.8974 44.65H42.0874C42.1607 44.65 42.2207 44.6767 42.2674 44.73C42.3207 44.7767 42.3474 44.8367 42.3474 44.91V45.8C42.3474 45.8733 42.3207 45.9333 42.2674 45.98C42.2207 46.0267 42.1607 46.05 42.0874 46.05H40.8974ZM45.8989 52.1C45.4056 52.1 44.9689 52.01 44.5889 51.83C44.2089 51.65 43.9056 51.39 43.6789 51.05C43.4589 50.7033 43.3389 50.29 43.3189 49.81C43.3123 49.7033 43.3089 49.57 43.3089 49.41C43.3089 49.2433 43.3123 49.1067 43.3189 49C43.3389 48.5133 43.4589 48.1 43.6789 47.76C43.8989 47.4133 44.1989 47.15 44.5789 46.97C44.9656 46.79 45.4056 46.7 45.8989 46.7C46.3589 46.7 46.7523 46.7667 47.0789 46.9C47.4056 47.0267 47.6723 47.1867 47.8789 47.38C48.0856 47.5733 48.2389 47.7733 48.3389 47.98C48.4456 48.18 48.5023 48.3567 48.5089 48.51C48.5156 48.5767 48.4923 48.6367 48.4389 48.69C48.3856 48.7367 48.3256 48.76 48.2589 48.76H46.9889C46.9156 48.76 46.8589 48.7433 46.8189 48.71C46.7789 48.6767 46.7423 48.6267 46.7089 48.56C46.6289 48.3533 46.5256 48.2067 46.3989 48.12C46.2789 48.0333 46.1223 47.99 45.9289 47.99C45.6623 47.99 45.4556 48.0767 45.3089 48.25C45.1689 48.4233 45.0923 48.69 45.0789 49.05C45.0723 49.3167 45.0723 49.5533 45.0789 49.76C45.0923 50.1267 45.1689 50.3933 45.3089 50.56C45.4556 50.7267 45.6623 50.81 45.9289 50.81C46.1356 50.81 46.2989 50.7667 46.4189 50.68C46.5389 50.5933 46.6356 50.4467 46.7089 50.24C46.7423 50.1733 46.7789 50.1233 46.8189 50.09C46.8589 50.0567 46.9156 50.04 46.9889 50.04H48.2589C48.3256 50.04 48.3856 50.0667 48.4389 50.12C48.4923 50.1667 48.5156 50.2233 48.5089 50.29C48.5023 50.4033 48.4689 50.5367 48.4089 50.69C48.3489 50.8367 48.2556 50.9933 48.1289 51.16C48.0023 51.3267 47.8356 51.4833 47.6289 51.63C47.4289 51.77 47.1856 51.8833 46.8989 51.97C46.6123 52.0567 46.2789 52.1 45.8989 52.1Z" fill="#A23A00"/>
<path d="M33 40.5C31.2708 40.5 29.6458 40.1719 28.125 39.5156C26.6042 38.8594 25.2812 37.9688 24.1562 36.8438C23.0312 35.7188 22.1406 34.3958 21.4844 32.875C20.8281 31.3542 20.5 29.7292 20.5 28C20.5 26.2708 20.8281 24.6458 21.4844 23.125C22.1406 21.6042 23.0312 20.2812 24.1562 19.1562C25.2812 18.0312 26.6042 17.1406 28.125 16.4844C29.6458 15.8281 31.2708 15.5 33 15.5C34.7292 15.5 36.3542 15.8281 37.875 16.4844C39.3958 17.1406 40.7188 18.0312 41.8438 19.1562C42.9688 20.2812 43.8594 21.6042 44.5156 23.125C45.1719 24.6458 45.5 26.2708 45.5 28C45.5 29.7292 45.1719 31.3542 44.5156 32.875C43.8594 34.3958 42.9688 35.7188 41.8438 36.8438C40.7188 37.9688 39.3958 38.8594 37.875 39.5156C36.3542 40.1719 34.7292 40.5 33 40.5ZM31.6562 38.5938V36.0312C30.9271 36.0312 30.3125 35.7604 29.8125 35.2188C29.3125 34.6771 29.0625 34.0417 29.0625 33.3125V31.9375L22.6562 25.5312C22.5521 25.9479 22.4792 26.3594 22.4375 26.7656C22.3958 27.1719 22.375 27.5833 22.375 28C22.375 30.7083 23.2552 33.0729 25.0156 35.0938C26.776 37.1146 28.9896 38.2812 31.6562 38.5938ZM40.8438 35.2188C41.3021 34.7188 41.7031 34.1875 42.0469 33.625C42.3906 33.0625 42.6823 32.474 42.9219 31.8594C43.1615 31.2448 43.3385 30.6146 43.4531 29.9688C43.5677 29.3229 43.625 28.6667 43.625 28C43.625 25.7917 43.0208 23.7865 41.8125 21.9844C40.6042 20.1823 38.9896 18.8646 36.9688 18.0312V18.5938C36.9688 19.3229 36.7188 19.9583 36.2188 20.5C35.7188 21.0417 35.1042 21.3125 34.375 21.3125H31.6562V24.0312C31.6562 24.3854 31.5156 24.6771 31.2344 24.9062C30.9531 25.1354 30.6354 25.25 30.2812 25.25H27.6875V28H35.75C36.1042 28 36.3958 28.1354 36.625 28.4062C36.8542 28.6771 36.9688 28.9896 36.9688 29.3438V33.3125H38.3125C38.9167 33.3125 39.4479 33.4896 39.9062 33.8438C40.3646 34.1979 40.6771 34.6562 40.8438 35.2188Z" fill="#A23A00"/>
</svg>
